%TF.GenerationSoftware,KiCad,Pcbnew,8.0.1*%
%TF.CreationDate,2025-05-13T16:21:41+05:45*%
%TF.ProjectId,12V-5V_buck_converter,3132562d-3556-45f6-9275-636b5f636f6e,rev?*%
%TF.SameCoordinates,Original*%
%TF.FileFunction,Legend,Top*%
%TF.FilePolarity,Positive*%
%FSLAX46Y46*%
G04 Gerber Fmt 4.6, Leading zero omitted, Abs format (unit mm)*
G04 Created by KiCad (PCBNEW 8.0.1) date 2025-05-13 16:21:41*
%MOMM*%
%LPD*%
G01*
G04 APERTURE LIST*
%ADD10C,0.100000*%
%ADD11C,0.300000*%
%ADD12C,0.150000*%
%ADD13C,0.120000*%
%ADD14C,0.000000*%
%ADD15C,0.127000*%
%ADD16C,0.152400*%
G04 APERTURE END LIST*
D10*
X30688174Y-24558900D02*
G75*
G02*
X30488174Y-24558900I-100000J0D01*
G01*
X30488174Y-24558900D02*
G75*
G02*
X30688174Y-24558900I100000J0D01*
G01*
D11*
X21636510Y-27931400D02*
X22779368Y-27931400D01*
X22207939Y-28502828D02*
X22207939Y-27359971D01*
X45004510Y-28185400D02*
X46147368Y-28185400D01*
X45575939Y-28756828D02*
X45575939Y-27613971D01*
D12*
X35647333Y-23060819D02*
X35314000Y-22584628D01*
X35075905Y-23060819D02*
X35075905Y-22060819D01*
X35075905Y-22060819D02*
X35456857Y-22060819D01*
X35456857Y-22060819D02*
X35552095Y-22108438D01*
X35552095Y-22108438D02*
X35599714Y-22156057D01*
X35599714Y-22156057D02*
X35647333Y-22251295D01*
X35647333Y-22251295D02*
X35647333Y-22394152D01*
X35647333Y-22394152D02*
X35599714Y-22489390D01*
X35599714Y-22489390D02*
X35552095Y-22537009D01*
X35552095Y-22537009D02*
X35456857Y-22584628D01*
X35456857Y-22584628D02*
X35075905Y-22584628D01*
X36028286Y-22156057D02*
X36075905Y-22108438D01*
X36075905Y-22108438D02*
X36171143Y-22060819D01*
X36171143Y-22060819D02*
X36409238Y-22060819D01*
X36409238Y-22060819D02*
X36504476Y-22108438D01*
X36504476Y-22108438D02*
X36552095Y-22156057D01*
X36552095Y-22156057D02*
X36599714Y-22251295D01*
X36599714Y-22251295D02*
X36599714Y-22346533D01*
X36599714Y-22346533D02*
X36552095Y-22489390D01*
X36552095Y-22489390D02*
X35980667Y-23060819D01*
X35980667Y-23060819D02*
X36599714Y-23060819D01*
X38949333Y-20613819D02*
X38616000Y-20137628D01*
X38377905Y-20613819D02*
X38377905Y-19613819D01*
X38377905Y-19613819D02*
X38758857Y-19613819D01*
X38758857Y-19613819D02*
X38854095Y-19661438D01*
X38854095Y-19661438D02*
X38901714Y-19709057D01*
X38901714Y-19709057D02*
X38949333Y-19804295D01*
X38949333Y-19804295D02*
X38949333Y-19947152D01*
X38949333Y-19947152D02*
X38901714Y-20042390D01*
X38901714Y-20042390D02*
X38854095Y-20090009D01*
X38854095Y-20090009D02*
X38758857Y-20137628D01*
X38758857Y-20137628D02*
X38377905Y-20137628D01*
X39282667Y-19613819D02*
X39901714Y-19613819D01*
X39901714Y-19613819D02*
X39568381Y-19994771D01*
X39568381Y-19994771D02*
X39711238Y-19994771D01*
X39711238Y-19994771D02*
X39806476Y-20042390D01*
X39806476Y-20042390D02*
X39854095Y-20090009D01*
X39854095Y-20090009D02*
X39901714Y-20185247D01*
X39901714Y-20185247D02*
X39901714Y-20423342D01*
X39901714Y-20423342D02*
X39854095Y-20518580D01*
X39854095Y-20518580D02*
X39806476Y-20566200D01*
X39806476Y-20566200D02*
X39711238Y-20613819D01*
X39711238Y-20613819D02*
X39425524Y-20613819D01*
X39425524Y-20613819D02*
X39330286Y-20566200D01*
X39330286Y-20566200D02*
X39282667Y-20518580D01*
X41235333Y-21441580D02*
X41187714Y-21489200D01*
X41187714Y-21489200D02*
X41044857Y-21536819D01*
X41044857Y-21536819D02*
X40949619Y-21536819D01*
X40949619Y-21536819D02*
X40806762Y-21489200D01*
X40806762Y-21489200D02*
X40711524Y-21393961D01*
X40711524Y-21393961D02*
X40663905Y-21298723D01*
X40663905Y-21298723D02*
X40616286Y-21108247D01*
X40616286Y-21108247D02*
X40616286Y-20965390D01*
X40616286Y-20965390D02*
X40663905Y-20774914D01*
X40663905Y-20774914D02*
X40711524Y-20679676D01*
X40711524Y-20679676D02*
X40806762Y-20584438D01*
X40806762Y-20584438D02*
X40949619Y-20536819D01*
X40949619Y-20536819D02*
X41044857Y-20536819D01*
X41044857Y-20536819D02*
X41187714Y-20584438D01*
X41187714Y-20584438D02*
X41235333Y-20632057D01*
X42092476Y-20870152D02*
X42092476Y-21536819D01*
X41854381Y-20489200D02*
X41616286Y-21203485D01*
X41616286Y-21203485D02*
X42235333Y-21203485D01*
X21764666Y-29934819D02*
X21764666Y-30649104D01*
X21764666Y-30649104D02*
X21717047Y-30791961D01*
X21717047Y-30791961D02*
X21621809Y-30887200D01*
X21621809Y-30887200D02*
X21478952Y-30934819D01*
X21478952Y-30934819D02*
X21383714Y-30934819D01*
X22193238Y-30030057D02*
X22240857Y-29982438D01*
X22240857Y-29982438D02*
X22336095Y-29934819D01*
X22336095Y-29934819D02*
X22574190Y-29934819D01*
X22574190Y-29934819D02*
X22669428Y-29982438D01*
X22669428Y-29982438D02*
X22717047Y-30030057D01*
X22717047Y-30030057D02*
X22764666Y-30125295D01*
X22764666Y-30125295D02*
X22764666Y-30220533D01*
X22764666Y-30220533D02*
X22717047Y-30363390D01*
X22717047Y-30363390D02*
X22145619Y-30934819D01*
X22145619Y-30934819D02*
X22764666Y-30934819D01*
X35393333Y-31654819D02*
X34917143Y-31654819D01*
X34917143Y-31654819D02*
X34917143Y-30654819D01*
X36250476Y-31654819D02*
X35679048Y-31654819D01*
X35964762Y-31654819D02*
X35964762Y-30654819D01*
X35964762Y-30654819D02*
X35869524Y-30797676D01*
X35869524Y-30797676D02*
X35774286Y-30892914D01*
X35774286Y-30892914D02*
X35679048Y-30940533D01*
X26109333Y-27029580D02*
X26061714Y-27077200D01*
X26061714Y-27077200D02*
X25918857Y-27124819D01*
X25918857Y-27124819D02*
X25823619Y-27124819D01*
X25823619Y-27124819D02*
X25680762Y-27077200D01*
X25680762Y-27077200D02*
X25585524Y-26981961D01*
X25585524Y-26981961D02*
X25537905Y-26886723D01*
X25537905Y-26886723D02*
X25490286Y-26696247D01*
X25490286Y-26696247D02*
X25490286Y-26553390D01*
X25490286Y-26553390D02*
X25537905Y-26362914D01*
X25537905Y-26362914D02*
X25585524Y-26267676D01*
X25585524Y-26267676D02*
X25680762Y-26172438D01*
X25680762Y-26172438D02*
X25823619Y-26124819D01*
X25823619Y-26124819D02*
X25918857Y-26124819D01*
X25918857Y-26124819D02*
X26061714Y-26172438D01*
X26061714Y-26172438D02*
X26109333Y-26220057D01*
X27061714Y-27124819D02*
X26490286Y-27124819D01*
X26776000Y-27124819D02*
X26776000Y-26124819D01*
X26776000Y-26124819D02*
X26680762Y-26267676D01*
X26680762Y-26267676D02*
X26585524Y-26362914D01*
X26585524Y-26362914D02*
X26490286Y-26410533D01*
X22629905Y-22814819D02*
X22629905Y-21814819D01*
X22629905Y-21814819D02*
X22868000Y-21814819D01*
X22868000Y-21814819D02*
X23010857Y-21862438D01*
X23010857Y-21862438D02*
X23106095Y-21957676D01*
X23106095Y-21957676D02*
X23153714Y-22052914D01*
X23153714Y-22052914D02*
X23201333Y-22243390D01*
X23201333Y-22243390D02*
X23201333Y-22386247D01*
X23201333Y-22386247D02*
X23153714Y-22576723D01*
X23153714Y-22576723D02*
X23106095Y-22671961D01*
X23106095Y-22671961D02*
X23010857Y-22767200D01*
X23010857Y-22767200D02*
X22868000Y-22814819D01*
X22868000Y-22814819D02*
X22629905Y-22814819D01*
X24153714Y-22814819D02*
X23582286Y-22814819D01*
X23868000Y-22814819D02*
X23868000Y-21814819D01*
X23868000Y-21814819D02*
X23772762Y-21957676D01*
X23772762Y-21957676D02*
X23677524Y-22052914D01*
X23677524Y-22052914D02*
X23582286Y-22100533D01*
X36586333Y-19758819D02*
X36253000Y-19282628D01*
X36014905Y-19758819D02*
X36014905Y-18758819D01*
X36014905Y-18758819D02*
X36395857Y-18758819D01*
X36395857Y-18758819D02*
X36491095Y-18806438D01*
X36491095Y-18806438D02*
X36538714Y-18854057D01*
X36538714Y-18854057D02*
X36586333Y-18949295D01*
X36586333Y-18949295D02*
X36586333Y-19092152D01*
X36586333Y-19092152D02*
X36538714Y-19187390D01*
X36538714Y-19187390D02*
X36491095Y-19235009D01*
X36491095Y-19235009D02*
X36395857Y-19282628D01*
X36395857Y-19282628D02*
X36014905Y-19282628D01*
X37538714Y-19758819D02*
X36967286Y-19758819D01*
X37253000Y-19758819D02*
X37253000Y-18758819D01*
X37253000Y-18758819D02*
X37157762Y-18901676D01*
X37157762Y-18901676D02*
X37062524Y-18996914D01*
X37062524Y-18996914D02*
X36967286Y-19044533D01*
X27696333Y-20520819D02*
X27363000Y-20044628D01*
X27124905Y-20520819D02*
X27124905Y-19520819D01*
X27124905Y-19520819D02*
X27505857Y-19520819D01*
X27505857Y-19520819D02*
X27601095Y-19568438D01*
X27601095Y-19568438D02*
X27648714Y-19616057D01*
X27648714Y-19616057D02*
X27696333Y-19711295D01*
X27696333Y-19711295D02*
X27696333Y-19854152D01*
X27696333Y-19854152D02*
X27648714Y-19949390D01*
X27648714Y-19949390D02*
X27601095Y-19997009D01*
X27601095Y-19997009D02*
X27505857Y-20044628D01*
X27505857Y-20044628D02*
X27124905Y-20044628D01*
X28553476Y-19854152D02*
X28553476Y-20520819D01*
X28315381Y-19473200D02*
X28077286Y-20187485D01*
X28077286Y-20187485D02*
X28696333Y-20187485D01*
X43444333Y-21695580D02*
X43396714Y-21743200D01*
X43396714Y-21743200D02*
X43253857Y-21790819D01*
X43253857Y-21790819D02*
X43158619Y-21790819D01*
X43158619Y-21790819D02*
X43015762Y-21743200D01*
X43015762Y-21743200D02*
X42920524Y-21647961D01*
X42920524Y-21647961D02*
X42872905Y-21552723D01*
X42872905Y-21552723D02*
X42825286Y-21362247D01*
X42825286Y-21362247D02*
X42825286Y-21219390D01*
X42825286Y-21219390D02*
X42872905Y-21028914D01*
X42872905Y-21028914D02*
X42920524Y-20933676D01*
X42920524Y-20933676D02*
X43015762Y-20838438D01*
X43015762Y-20838438D02*
X43158619Y-20790819D01*
X43158619Y-20790819D02*
X43253857Y-20790819D01*
X43253857Y-20790819D02*
X43396714Y-20838438D01*
X43396714Y-20838438D02*
X43444333Y-20886057D01*
X44349095Y-20790819D02*
X43872905Y-20790819D01*
X43872905Y-20790819D02*
X43825286Y-21267009D01*
X43825286Y-21267009D02*
X43872905Y-21219390D01*
X43872905Y-21219390D02*
X43968143Y-21171771D01*
X43968143Y-21171771D02*
X44206238Y-21171771D01*
X44206238Y-21171771D02*
X44301476Y-21219390D01*
X44301476Y-21219390D02*
X44349095Y-21267009D01*
X44349095Y-21267009D02*
X44396714Y-21362247D01*
X44396714Y-21362247D02*
X44396714Y-21600342D01*
X44396714Y-21600342D02*
X44349095Y-21695580D01*
X44349095Y-21695580D02*
X44301476Y-21743200D01*
X44301476Y-21743200D02*
X44206238Y-21790819D01*
X44206238Y-21790819D02*
X43968143Y-21790819D01*
X43968143Y-21790819D02*
X43872905Y-21743200D01*
X43872905Y-21743200D02*
X43825286Y-21695580D01*
X27950333Y-21790819D02*
X27617000Y-21314628D01*
X27378905Y-21790819D02*
X27378905Y-20790819D01*
X27378905Y-20790819D02*
X27759857Y-20790819D01*
X27759857Y-20790819D02*
X27855095Y-20838438D01*
X27855095Y-20838438D02*
X27902714Y-20886057D01*
X27902714Y-20886057D02*
X27950333Y-20981295D01*
X27950333Y-20981295D02*
X27950333Y-21124152D01*
X27950333Y-21124152D02*
X27902714Y-21219390D01*
X27902714Y-21219390D02*
X27855095Y-21267009D01*
X27855095Y-21267009D02*
X27759857Y-21314628D01*
X27759857Y-21314628D02*
X27378905Y-21314628D01*
X28855095Y-20790819D02*
X28378905Y-20790819D01*
X28378905Y-20790819D02*
X28331286Y-21267009D01*
X28331286Y-21267009D02*
X28378905Y-21219390D01*
X28378905Y-21219390D02*
X28474143Y-21171771D01*
X28474143Y-21171771D02*
X28712238Y-21171771D01*
X28712238Y-21171771D02*
X28807476Y-21219390D01*
X28807476Y-21219390D02*
X28855095Y-21267009D01*
X28855095Y-21267009D02*
X28902714Y-21362247D01*
X28902714Y-21362247D02*
X28902714Y-21600342D01*
X28902714Y-21600342D02*
X28855095Y-21695580D01*
X28855095Y-21695580D02*
X28807476Y-21743200D01*
X28807476Y-21743200D02*
X28712238Y-21790819D01*
X28712238Y-21790819D02*
X28474143Y-21790819D01*
X28474143Y-21790819D02*
X28378905Y-21743200D01*
X28378905Y-21743200D02*
X28331286Y-21695580D01*
X28141333Y-27029580D02*
X28093714Y-27077200D01*
X28093714Y-27077200D02*
X27950857Y-27124819D01*
X27950857Y-27124819D02*
X27855619Y-27124819D01*
X27855619Y-27124819D02*
X27712762Y-27077200D01*
X27712762Y-27077200D02*
X27617524Y-26981961D01*
X27617524Y-26981961D02*
X27569905Y-26886723D01*
X27569905Y-26886723D02*
X27522286Y-26696247D01*
X27522286Y-26696247D02*
X27522286Y-26553390D01*
X27522286Y-26553390D02*
X27569905Y-26362914D01*
X27569905Y-26362914D02*
X27617524Y-26267676D01*
X27617524Y-26267676D02*
X27712762Y-26172438D01*
X27712762Y-26172438D02*
X27855619Y-26124819D01*
X27855619Y-26124819D02*
X27950857Y-26124819D01*
X27950857Y-26124819D02*
X28093714Y-26172438D01*
X28093714Y-26172438D02*
X28141333Y-26220057D01*
X28522286Y-26220057D02*
X28569905Y-26172438D01*
X28569905Y-26172438D02*
X28665143Y-26124819D01*
X28665143Y-26124819D02*
X28903238Y-26124819D01*
X28903238Y-26124819D02*
X28998476Y-26172438D01*
X28998476Y-26172438D02*
X29046095Y-26220057D01*
X29046095Y-26220057D02*
X29093714Y-26315295D01*
X29093714Y-26315295D02*
X29093714Y-26410533D01*
X29093714Y-26410533D02*
X29046095Y-26553390D01*
X29046095Y-26553390D02*
X28474667Y-27124819D01*
X28474667Y-27124819D02*
X29093714Y-27124819D01*
X46148666Y-21806819D02*
X46148666Y-22521104D01*
X46148666Y-22521104D02*
X46101047Y-22663961D01*
X46101047Y-22663961D02*
X46005809Y-22759200D01*
X46005809Y-22759200D02*
X45862952Y-22806819D01*
X45862952Y-22806819D02*
X45767714Y-22806819D01*
X47148666Y-22806819D02*
X46577238Y-22806819D01*
X46862952Y-22806819D02*
X46862952Y-21806819D01*
X46862952Y-21806819D02*
X46767714Y-21949676D01*
X46767714Y-21949676D02*
X46672476Y-22044914D01*
X46672476Y-22044914D02*
X46577238Y-22092533D01*
X27512333Y-18901580D02*
X27464714Y-18949200D01*
X27464714Y-18949200D02*
X27321857Y-18996819D01*
X27321857Y-18996819D02*
X27226619Y-18996819D01*
X27226619Y-18996819D02*
X27083762Y-18949200D01*
X27083762Y-18949200D02*
X26988524Y-18853961D01*
X26988524Y-18853961D02*
X26940905Y-18758723D01*
X26940905Y-18758723D02*
X26893286Y-18568247D01*
X26893286Y-18568247D02*
X26893286Y-18425390D01*
X26893286Y-18425390D02*
X26940905Y-18234914D01*
X26940905Y-18234914D02*
X26988524Y-18139676D01*
X26988524Y-18139676D02*
X27083762Y-18044438D01*
X27083762Y-18044438D02*
X27226619Y-17996819D01*
X27226619Y-17996819D02*
X27321857Y-17996819D01*
X27321857Y-17996819D02*
X27464714Y-18044438D01*
X27464714Y-18044438D02*
X27512333Y-18092057D01*
X27845667Y-17996819D02*
X28464714Y-17996819D01*
X28464714Y-17996819D02*
X28131381Y-18377771D01*
X28131381Y-18377771D02*
X28274238Y-18377771D01*
X28274238Y-18377771D02*
X28369476Y-18425390D01*
X28369476Y-18425390D02*
X28417095Y-18473009D01*
X28417095Y-18473009D02*
X28464714Y-18568247D01*
X28464714Y-18568247D02*
X28464714Y-18806342D01*
X28464714Y-18806342D02*
X28417095Y-18901580D01*
X28417095Y-18901580D02*
X28369476Y-18949200D01*
X28369476Y-18949200D02*
X28274238Y-18996819D01*
X28274238Y-18996819D02*
X27988524Y-18996819D01*
X27988524Y-18996819D02*
X27893286Y-18949200D01*
X27893286Y-18949200D02*
X27845667Y-18901580D01*
D13*
%TO.C,R2*%
X35576742Y-20559500D02*
X36051258Y-20559500D01*
X35576742Y-21604500D02*
X36051258Y-21604500D01*
%TO.C,C4*%
X40750000Y-24411252D02*
X40750000Y-23888748D01*
X42220000Y-24411252D02*
X42220000Y-23888748D01*
D14*
%TO.C,kibuzzard-6822FF75*%
G36*
X48762047Y-31040465D02*
G01*
X48856958Y-31133761D01*
X48911481Y-31277945D01*
X48929656Y-31461709D01*
X48909866Y-31645877D01*
X48850496Y-31791273D01*
X48752354Y-31885780D01*
X48616247Y-31917283D01*
X48476910Y-31885780D01*
X48381998Y-31791273D01*
X48327475Y-31645877D01*
X48309300Y-31461709D01*
X48329090Y-31277945D01*
X48388460Y-31133761D01*
X48486603Y-31040465D01*
X48622709Y-31009367D01*
X48762047Y-31040465D01*
G37*
G36*
X53240911Y-32532253D02*
G01*
X52567782Y-32532253D01*
X52083129Y-32532253D01*
X50234987Y-32532253D01*
X48622709Y-32532253D01*
X46797184Y-32532253D01*
X46238218Y-32532253D01*
X45565089Y-32532253D01*
X45565089Y-30220998D01*
X46238218Y-30220998D01*
X46275375Y-30401935D01*
X46328687Y-30628107D01*
X46371408Y-30797376D01*
X46417719Y-30973467D01*
X46467620Y-31156378D01*
X46520394Y-31342880D01*
X46575321Y-31529740D01*
X46632402Y-31716960D01*
X46717216Y-31983519D01*
X46797184Y-32220998D01*
X47207523Y-32220998D01*
X47269272Y-32048857D01*
X47329584Y-31872766D01*
X47388460Y-31692727D01*
X47445003Y-31511790D01*
X47460900Y-31458478D01*
X47905423Y-31458478D01*
X47918347Y-31630934D01*
X47957120Y-31786426D01*
X48019721Y-31923341D01*
X48104131Y-32040061D01*
X48208331Y-32134569D01*
X48330302Y-32204843D01*
X48468832Y-32248462D01*
X48622709Y-32263002D01*
X48776586Y-32248462D01*
X48915116Y-32204843D01*
X49036683Y-32134569D01*
X49139672Y-32040061D01*
X49222871Y-31923341D01*
X49285068Y-31786426D01*
X49323840Y-31630934D01*
X49336764Y-31458478D01*
X49323840Y-31288446D01*
X49285068Y-31133761D01*
X49222467Y-30997250D01*
X49138057Y-30881742D01*
X49033856Y-30788850D01*
X48911885Y-30720191D01*
X48854171Y-30702420D01*
X49617863Y-30702420D01*
X49617863Y-31548947D01*
X49624325Y-31697574D01*
X49643711Y-31833276D01*
X49739026Y-32057832D01*
X49928040Y-32204843D01*
X50064551Y-32243616D01*
X50234987Y-32256540D01*
X50412289Y-32249270D01*
X50575859Y-32227460D01*
X50720851Y-32198381D01*
X50842418Y-32169302D01*
X50842418Y-31031984D01*
X51159058Y-31031984D01*
X51504777Y-31031984D01*
X51504777Y-31655570D01*
X51514470Y-31828026D01*
X51543549Y-31964132D01*
X51656635Y-32146685D01*
X51837572Y-32233922D01*
X52083129Y-32256540D01*
X52330302Y-32237153D01*
X52567782Y-32172533D01*
X52512855Y-31830045D01*
X52411078Y-31872048D01*
X52320609Y-31896281D01*
X52230141Y-31907590D01*
X52128363Y-31910821D01*
X52034664Y-31901128D01*
X51963582Y-31862355D01*
X51918347Y-31781580D01*
X51902192Y-31645877D01*
X51902192Y-31031984D01*
X52538703Y-31031984D01*
X52538703Y-30702420D01*
X51902192Y-30702420D01*
X51902192Y-30256540D01*
X51504777Y-30321160D01*
X51504777Y-30702420D01*
X51159058Y-30702420D01*
X51159058Y-31031984D01*
X50842418Y-31031984D01*
X50842418Y-30702420D01*
X50441772Y-30702420D01*
X50441772Y-31894666D01*
X50260835Y-31910821D01*
X50065359Y-31809044D01*
X50027798Y-31680207D01*
X50015278Y-31497250D01*
X50015278Y-30702420D01*
X49617863Y-30702420D01*
X48854171Y-30702420D01*
X48774163Y-30677784D01*
X48622709Y-30663648D01*
X48473275Y-30677784D01*
X48335149Y-30720191D01*
X48211966Y-30788850D01*
X48107362Y-30881742D01*
X48022548Y-30997250D01*
X47958735Y-31133761D01*
X47918751Y-31288446D01*
X47905423Y-31458478D01*
X47460900Y-31458478D01*
X47498315Y-31333007D01*
X47548396Y-31156378D01*
X47617055Y-30899108D01*
X47677637Y-30653955D01*
X47729737Y-30426168D01*
X47772952Y-30220998D01*
X47356150Y-30220998D01*
X47327071Y-30389011D01*
X47291530Y-30582872D01*
X47251142Y-30792485D01*
X47207523Y-31007751D01*
X47160674Y-31224229D01*
X47110593Y-31437477D01*
X47058897Y-31637396D01*
X47007200Y-31813890D01*
X46955100Y-31634973D01*
X46902192Y-31434246D01*
X46850496Y-31220998D01*
X46802031Y-31004520D01*
X46757200Y-30789658D01*
X46716409Y-30581257D01*
X46682483Y-30388607D01*
X46658250Y-30220998D01*
X46238218Y-30220998D01*
X45565089Y-30220998D01*
X45565089Y-29951747D01*
X46238218Y-29951747D01*
X52567782Y-29951747D01*
X53240911Y-29951747D01*
X53240911Y-32532253D01*
G37*
D13*
%TO.C,J2*%
X14400000Y-23430000D02*
X14400000Y-23930000D01*
X14640000Y-23670000D02*
X14640000Y-24440000D01*
X14640000Y-26020000D02*
X14640000Y-26980000D01*
X14640000Y-28560000D02*
X14640000Y-29330000D01*
X15140000Y-23430000D02*
X14400000Y-23430000D01*
X15200000Y-23670000D02*
X15200000Y-24440000D01*
X15200000Y-26020000D02*
X15200000Y-26980000D01*
X15200000Y-28560000D02*
X15200000Y-29330000D01*
X20500000Y-23670000D02*
X20500000Y-29330000D01*
X20960000Y-23670000D02*
X14640000Y-23670000D01*
X20960000Y-23670000D02*
X20960000Y-29330000D01*
X20960000Y-29330000D02*
X14640000Y-29330000D01*
D14*
%TO.C,kibuzzard-68230884*%
G36*
X52004439Y-21098260D02*
G01*
X52136911Y-21248502D01*
X52204763Y-21464981D01*
X52224149Y-21717000D01*
X52218090Y-21859569D01*
X52199916Y-21990021D01*
X52119141Y-22204884D01*
X51970514Y-22347048D01*
X51742727Y-22398745D01*
X51707186Y-22398745D01*
X51671645Y-22395514D01*
X51671645Y-21051410D01*
X51729803Y-21043333D01*
X51787961Y-21041717D01*
X52004439Y-21098260D01*
G37*
G36*
X53301155Y-23029870D02*
G01*
X52628026Y-23029870D01*
X51700724Y-23029870D01*
X50631257Y-23029870D01*
X48773422Y-23029870D01*
X47955974Y-23029870D01*
X47282845Y-23029870D01*
X47282845Y-21717000D01*
X47955974Y-21717000D01*
X47970514Y-21959730D01*
X48014132Y-22170958D01*
X48084407Y-22350279D01*
X48178914Y-22497291D01*
X48296443Y-22611992D01*
X48435780Y-22694383D01*
X48595312Y-22744060D01*
X48773422Y-22760619D01*
X48970918Y-22752541D01*
X49136911Y-22728309D01*
X49358236Y-22670150D01*
X49358236Y-21671766D01*
X48960821Y-21671766D01*
X48960821Y-22401976D01*
X48883276Y-22411669D01*
X48805732Y-22414900D01*
X48612679Y-22372493D01*
X48472937Y-22245271D01*
X48410112Y-22111184D01*
X48372416Y-21935094D01*
X48359851Y-21717000D01*
X48366717Y-21568777D01*
X48387315Y-21434286D01*
X48477784Y-21214577D01*
X48637719Y-21070796D01*
X48876814Y-21019100D01*
X49090061Y-21054641D01*
X49264536Y-21135417D01*
X49367929Y-20818777D01*
X49301693Y-20780005D01*
X49190223Y-20731540D01*
X49139044Y-20718616D01*
X49632872Y-20718616D01*
X49632872Y-22718616D01*
X49991515Y-22718616D01*
X49991515Y-21390667D01*
X50111602Y-21612351D01*
X50226303Y-21833676D01*
X50335619Y-22054641D01*
X50439550Y-22275607D01*
X50538096Y-22496932D01*
X50631257Y-22718616D01*
X50951128Y-22718616D01*
X50951128Y-22695998D01*
X51274229Y-22695998D01*
X51492323Y-22733155D01*
X51700724Y-22744464D01*
X51895796Y-22730328D01*
X52073906Y-22687921D01*
X52231822Y-22614819D01*
X52366313Y-22508599D01*
X52475764Y-22367646D01*
X52558559Y-22190344D01*
X52610659Y-21974270D01*
X52628026Y-21717000D01*
X52612275Y-21465384D01*
X52565021Y-21253349D01*
X52489496Y-21078066D01*
X52388931Y-20936709D01*
X52263325Y-20828874D01*
X52112679Y-20754157D01*
X51941031Y-20710538D01*
X51752420Y-20695998D01*
X51529480Y-20705691D01*
X51274229Y-20744464D01*
X51274229Y-22695998D01*
X50951128Y-22695998D01*
X50951128Y-20718616D01*
X50592485Y-20718616D01*
X50592485Y-21949633D01*
X50535538Y-21823624D01*
X50468090Y-21678228D01*
X50392162Y-21520716D01*
X50309771Y-21358357D01*
X50222937Y-21193171D01*
X50133680Y-21027178D01*
X50043212Y-20866838D01*
X49952743Y-20718616D01*
X49632872Y-20718616D01*
X49139044Y-20718616D01*
X49030288Y-20691152D01*
X48821887Y-20673381D01*
X48646604Y-20689940D01*
X48482630Y-20739617D01*
X48334811Y-20822412D01*
X48207994Y-20938325D01*
X48103793Y-21086548D01*
X48023826Y-21266273D01*
X47972937Y-21476693D01*
X47955974Y-21717000D01*
X47282845Y-21717000D01*
X47282845Y-20404130D01*
X47955974Y-20404130D01*
X52628026Y-20404130D01*
X53301155Y-20404130D01*
X53301155Y-23029870D01*
G37*
D15*
%TO.C,L1*%
X30560000Y-26350000D02*
X30560000Y-29280000D01*
X30560000Y-26350000D02*
X40560000Y-26350000D01*
X30560000Y-36050000D02*
X30560000Y-33120000D01*
X30560000Y-36050000D02*
X40560000Y-36050000D01*
X40560000Y-26350000D02*
X40560000Y-29280000D01*
X40560000Y-36050000D02*
X40560000Y-33120000D01*
D13*
%TO.C,C1*%
X25350000Y-24211252D02*
X25350000Y-23688748D01*
X26820000Y-24211252D02*
X26820000Y-23688748D01*
D14*
%TO.C,kibuzzard-6822FFBE*%
G36*
X20760075Y-32634030D02*
G01*
X20086947Y-32634030D01*
X18125719Y-32634030D01*
X16032019Y-32634030D01*
X15473053Y-32634030D01*
X14799925Y-32634030D01*
X14799925Y-30329237D01*
X15473053Y-30329237D01*
X15510210Y-30510174D01*
X15563522Y-30736346D01*
X15606243Y-30905615D01*
X15652554Y-31081706D01*
X15702456Y-31264617D01*
X15755229Y-31451119D01*
X15810156Y-31637979D01*
X15867237Y-31825199D01*
X15952052Y-32091758D01*
X16032019Y-32329237D01*
X16442359Y-32329237D01*
X16504107Y-32157096D01*
X16564419Y-31981006D01*
X16623296Y-31800966D01*
X16679838Y-31620029D01*
X16733150Y-31441246D01*
X16783231Y-31264617D01*
X16816429Y-31140223D01*
X17162876Y-31140223D01*
X17582908Y-31140223D01*
X17582908Y-31699189D01*
X17589370Y-31848624D01*
X17608756Y-31980288D01*
X17697609Y-32188688D01*
X17865622Y-32319544D01*
X17983150Y-32353470D01*
X18125719Y-32364779D01*
X18324426Y-32343777D01*
X18366859Y-32329237D01*
X18865622Y-32329237D01*
X19263037Y-32329237D01*
X19263037Y-31136992D01*
X19355121Y-31127299D01*
X19443974Y-31124068D01*
X19641066Y-31217767D01*
X19677415Y-31341354D01*
X19689532Y-31524714D01*
X19689532Y-32329237D01*
X20086947Y-32329237D01*
X20086947Y-31473018D01*
X20079677Y-31324795D01*
X20057868Y-31190304D01*
X19959321Y-30970595D01*
X19770307Y-30828430D01*
X19635412Y-30790869D01*
X19469822Y-30778349D01*
X19292520Y-30784811D01*
X19128950Y-30804197D01*
X18984766Y-30830853D01*
X18865622Y-30859124D01*
X18865622Y-32329237D01*
X18366859Y-32329237D01*
X18555444Y-32264617D01*
X18503748Y-31944746D01*
X18329273Y-32004520D01*
X18196801Y-32019060D01*
X18030404Y-31952824D01*
X17980323Y-31750885D01*
X17980323Y-30810659D01*
X17712149Y-30810659D01*
X17162876Y-30810659D01*
X17162876Y-31140223D01*
X16816429Y-31140223D01*
X16851890Y-31007347D01*
X16912472Y-30762194D01*
X16964572Y-30534407D01*
X16998259Y-30374472D01*
X17463360Y-30374472D01*
X17536058Y-30558640D01*
X17712149Y-30626491D01*
X17889855Y-30558640D01*
X17964168Y-30374472D01*
X17889855Y-30187073D01*
X17712149Y-30119221D01*
X17536058Y-30187073D01*
X17463360Y-30374472D01*
X16998259Y-30374472D01*
X17007787Y-30329237D01*
X16590985Y-30329237D01*
X16561906Y-30497250D01*
X16526365Y-30691111D01*
X16485977Y-30900724D01*
X16442359Y-31115990D01*
X16395509Y-31332468D01*
X16345428Y-31545716D01*
X16293732Y-31745635D01*
X16242036Y-31922129D01*
X16189935Y-31743212D01*
X16137027Y-31542485D01*
X16085331Y-31329237D01*
X16036866Y-31112759D01*
X15992036Y-30897897D01*
X15951244Y-30689496D01*
X15917318Y-30496847D01*
X15893086Y-30329237D01*
X15473053Y-30329237D01*
X14799925Y-30329237D01*
X14799925Y-29849970D01*
X15473053Y-29849970D01*
X20086947Y-29849970D01*
X20760075Y-29849970D01*
X20760075Y-32634030D01*
G37*
%TO.C,kibuzzard-68230884*%
G36*
X19492439Y-20844260D02*
G01*
X19624911Y-20994502D01*
X19692763Y-21210981D01*
X19712149Y-21463000D01*
X19706090Y-21605569D01*
X19687916Y-21736021D01*
X19607141Y-21950884D01*
X19458514Y-22093048D01*
X19230727Y-22144745D01*
X19195186Y-22144745D01*
X19159645Y-22141514D01*
X19159645Y-20797410D01*
X19217803Y-20789333D01*
X19275961Y-20787717D01*
X19492439Y-20844260D01*
G37*
G36*
X20789155Y-22775870D02*
G01*
X20116026Y-22775870D01*
X19188724Y-22775870D01*
X18119257Y-22775870D01*
X16261422Y-22775870D01*
X15443974Y-22775870D01*
X14770845Y-22775870D01*
X14770845Y-21463000D01*
X15443974Y-21463000D01*
X15458514Y-21705730D01*
X15502132Y-21916958D01*
X15572407Y-22096279D01*
X15666914Y-22243291D01*
X15784443Y-22357992D01*
X15923780Y-22440383D01*
X16083312Y-22490060D01*
X16261422Y-22506619D01*
X16458918Y-22498541D01*
X16624911Y-22474309D01*
X16846236Y-22416150D01*
X16846236Y-21417766D01*
X16448821Y-21417766D01*
X16448821Y-22147976D01*
X16371276Y-22157669D01*
X16293732Y-22160900D01*
X16100679Y-22118493D01*
X15960937Y-21991271D01*
X15898112Y-21857184D01*
X15860416Y-21681094D01*
X15847851Y-21463000D01*
X15854717Y-21314777D01*
X15875315Y-21180286D01*
X15965784Y-20960577D01*
X16125719Y-20816796D01*
X16364814Y-20765100D01*
X16578061Y-20800641D01*
X16752536Y-20881417D01*
X16855929Y-20564777D01*
X16789693Y-20526005D01*
X16678223Y-20477540D01*
X16627044Y-20464616D01*
X17120872Y-20464616D01*
X17120872Y-22464616D01*
X17479515Y-22464616D01*
X17479515Y-21136667D01*
X17599602Y-21358351D01*
X17714303Y-21579676D01*
X17823619Y-21800641D01*
X17927550Y-22021607D01*
X18026096Y-22242932D01*
X18119257Y-22464616D01*
X18439128Y-22464616D01*
X18439128Y-22441998D01*
X18762229Y-22441998D01*
X18980323Y-22479155D01*
X19188724Y-22490464D01*
X19383796Y-22476328D01*
X19561906Y-22433921D01*
X19719822Y-22360819D01*
X19854313Y-22254599D01*
X19963764Y-22113646D01*
X20046559Y-21936344D01*
X20098659Y-21720270D01*
X20116026Y-21463000D01*
X20100275Y-21211384D01*
X20053021Y-20999349D01*
X19977496Y-20824066D01*
X19876931Y-20682709D01*
X19751325Y-20574874D01*
X19600679Y-20500157D01*
X19429031Y-20456538D01*
X19240420Y-20441998D01*
X19017480Y-20451691D01*
X18762229Y-20490464D01*
X18762229Y-22441998D01*
X18439128Y-22441998D01*
X18439128Y-20464616D01*
X18080485Y-20464616D01*
X18080485Y-21695633D01*
X18023538Y-21569624D01*
X17956090Y-21424228D01*
X17880162Y-21266716D01*
X17797771Y-21104357D01*
X17710937Y-20939171D01*
X17621680Y-20773178D01*
X17531212Y-20612838D01*
X17440743Y-20464616D01*
X17120872Y-20464616D01*
X16627044Y-20464616D01*
X16518288Y-20437152D01*
X16309887Y-20419381D01*
X16134604Y-20435940D01*
X15970630Y-20485617D01*
X15822811Y-20568412D01*
X15695994Y-20684325D01*
X15591793Y-20832548D01*
X15511826Y-21012273D01*
X15460937Y-21222693D01*
X15443974Y-21463000D01*
X14770845Y-21463000D01*
X14770845Y-20150130D01*
X15443974Y-20150130D01*
X20116026Y-20150130D01*
X20789155Y-20150130D01*
X20789155Y-22775870D01*
G37*
D13*
%TO.C,D1*%
X22681000Y-23422000D02*
X22681000Y-25237000D01*
X22681000Y-25237000D02*
X23901000Y-25237000D01*
X23901000Y-25237000D02*
X23901000Y-23422000D01*
%TO.C,R1*%
X33975742Y-18921500D02*
X34450258Y-18921500D01*
X33975742Y-19966500D02*
X34450258Y-19966500D01*
D16*
%TO.C,U1*%
X30504100Y-22479300D02*
X30504100Y-24028700D01*
X32459900Y-24028700D02*
X32459900Y-22479300D01*
D13*
%TO.C,C5*%
X43175000Y-24340580D02*
X43175000Y-24059420D01*
X44195000Y-24340580D02*
X44195000Y-24059420D01*
%TO.C,C2*%
X27607000Y-24156580D02*
X27607000Y-23875420D01*
X28627000Y-24156580D02*
X28627000Y-23875420D01*
%TO.C,J1*%
X46800000Y-23670000D02*
X53120000Y-23670000D01*
X46800000Y-29330000D02*
X46800000Y-23670000D01*
X46800000Y-29330000D02*
X53120000Y-29330000D01*
X47260000Y-29330000D02*
X47260000Y-23670000D01*
X52560000Y-24440000D02*
X52560000Y-23670000D01*
X52560000Y-26980000D02*
X52560000Y-26020000D01*
X52560000Y-29330000D02*
X52560000Y-28560000D01*
X52620000Y-29570000D02*
X53360000Y-29570000D01*
X53120000Y-24440000D02*
X53120000Y-23670000D01*
X53120000Y-26980000D02*
X53120000Y-26020000D01*
X53120000Y-29330000D02*
X53120000Y-28560000D01*
X53360000Y-29570000D02*
X53360000Y-29070000D01*
%TO.C,C3*%
X29853836Y-18830000D02*
X29638164Y-18830000D01*
X29853836Y-19550000D02*
X29638164Y-19550000D01*
%TD*%
M02*
