M48
; DRILL file {KiCad 8.0.1} date 2025-05-13T16:21:49+0545
; FORMAT={-:-/ absolute / metric / decimal}
; #@! TF.CreationDate,2025-05-13T16:21:49+05:45
; #@! TF.GenerationSoftware,Kicad,Pcbnew,8.0.1
; #@! TF.FileFunction,Plated,1,2,PTH
FMAT,2
METRIC
; #@! TA.AperFunction,Plated,PTH,ViaDrill
T1C0.300
; #@! TA.AperFunction,Plated,PTH,ComponentDrill
T2C1.100
; #@! TA.AperFunction,Plated,PTH,ComponentDrill
T3C2.200
%
G90
G05
T1
X20.32Y-16.669
X20.32Y-23.273
X20.574Y-33.687
X20.574Y-36.481
X21.082Y-20.098
X21.082Y-30.512
X23.749Y-16.685
X23.749Y-20.114
X24.003Y-30.528
X24.003Y-33.703
X24.003Y-36.497
X24.384Y-23.368
X26.035Y-21.844
X26.67Y-20.177
X26.67Y-21.844
X27.178Y-16.748
X27.432Y-30.591
X27.432Y-33.766
X27.432Y-36.56
X27.559Y-22.098
X28.194Y-22.098
X29.285Y-24.8
X29.972Y-23.114
X30.607Y-16.637
X30.861Y-36.449
X32.279Y-20.452
X32.285Y-19.4
X33.02Y-20.447
X33.147Y-22.352
X33.147Y-23.114
X33.147Y-23.876
X34.036Y-16.653
X34.036Y-23.257
X34.036Y-26.94
X34.29Y-30.496
X34.29Y-33.671
X34.29Y-36.465
X35.687Y-18.415
X36.83Y-26.987
X37.465Y-16.7
X37.465Y-20.13
X37.465Y-23.304
X37.719Y-36.512
X39.61Y-28.334
X40.894Y-16.716
X40.894Y-20.145
X40.894Y-27.003
X41.148Y-22.098
X41.148Y-36.528
X41.783Y-22.098
X42.672Y-21.844
X42.672Y-25.146
X43.434Y-22.352
X44.069Y-22.352
X44.323Y-16.732
X44.323Y-20.161
X44.323Y-27.019
X44.577Y-30.575
X44.577Y-33.75
X44.577Y-36.544
X47.752Y-16.764
X47.752Y-20.193
X47.752Y-23.368
X47.752Y-27.051
X48.006Y-30.607
X48.006Y-33.782
X48.006Y-36.576
T2
X17.8Y-25.23
X17.8Y-27.77
X49.96Y-25.23
X49.96Y-27.77
T3
X17.0Y-17.0
X17.0Y-36.0
X51.0Y-17.0
X51.0Y-36.0
M30
