%TF.GenerationSoftware,KiCad,Pcbnew,8.0.1*%
%TF.CreationDate,2025-05-13T16:21:41+05:45*%
%TF.ProjectId,12V-5V_buck_converter,3132562d-3556-45f6-9275-636b5f636f6e,rev?*%
%TF.SameCoordinates,Original*%
%TF.FileFunction,Soldermask,Top*%
%TF.FilePolarity,Negative*%
%FSLAX46Y46*%
G04 Gerber Fmt 4.6, Leading zero omitted, Abs format (unit mm)*
G04 Created by KiCad (PCBNEW 8.0.1) date 2025-05-13 16:21:41*
%MOMM*%
%LPD*%
G01*
G04 APERTURE LIST*
G04 Aperture macros list*
%AMRoundRect*
0 Rectangle with rounded corners*
0 $1 Rounding radius*
0 $2 $3 $4 $5 $6 $7 $8 $9 X,Y pos of 4 corners*
0 Add a 4 corners polygon primitive as box body*
4,1,4,$2,$3,$4,$5,$6,$7,$8,$9,$2,$3,0*
0 Add four circle primitives for the rounded corners*
1,1,$1+$1,$2,$3*
1,1,$1+$1,$4,$5*
1,1,$1+$1,$6,$7*
1,1,$1+$1,$8,$9*
0 Add four rect primitives between the rounded corners*
20,1,$1+$1,$2,$3,$4,$5,0*
20,1,$1+$1,$4,$5,$6,$7,0*
20,1,$1+$1,$6,$7,$8,$9,0*
20,1,$1+$1,$8,$9,$2,$3,0*%
G04 Aperture macros list end*
%ADD10RoundRect,0.200000X-0.200000X-0.275000X0.200000X-0.275000X0.200000X0.275000X-0.200000X0.275000X0*%
%ADD11RoundRect,0.100000X-0.130000X-0.100000X0.130000X-0.100000X0.130000X0.100000X-0.130000X0.100000X0*%
%ADD12RoundRect,0.250000X0.475000X-0.250000X0.475000X0.250000X-0.475000X0.250000X-0.475000X-0.250000X0*%
%ADD13C,2.600000*%
%ADD14C,3.800000*%
%ADD15C,1.100000*%
%ADD16R,2.200000X2.200000*%
%ADD17C,2.200000*%
%ADD18RoundRect,0.102000X-1.250000X-1.600000X1.250000X-1.600000X1.250000X1.600000X-1.250000X1.600000X0*%
%ADD19RoundRect,0.075000X0.275000X-0.390000X0.275000X0.390000X-0.275000X0.390000X-0.275000X-0.390000X0*%
%ADD20RoundRect,0.075000X0.275000X-0.075000X0.275000X0.075000X-0.275000X0.075000X-0.275000X-0.075000X0*%
%ADD21RoundRect,0.100000X0.130000X0.100000X-0.130000X0.100000X-0.130000X-0.100000X0.130000X-0.100000X0*%
%ADD22R,0.279400X0.606400*%
%ADD23RoundRect,0.225000X0.250000X-0.225000X0.250000X0.225000X-0.250000X0.225000X-0.250000X-0.225000X0*%
%ADD24RoundRect,0.100000X-0.100000X0.130000X-0.100000X-0.130000X0.100000X-0.130000X0.100000X0.130000X0*%
%ADD25RoundRect,0.140000X0.140000X0.170000X-0.140000X0.170000X-0.140000X-0.170000X0.140000X-0.170000X0*%
G04 APERTURE END LIST*
D10*
%TO.C,R2*%
X34989000Y-21082000D03*
X36639000Y-21082000D03*
%TD*%
D11*
%TO.C,R3*%
X38796000Y-21209000D03*
X39436000Y-21209000D03*
%TD*%
D12*
%TO.C,C4*%
X41485000Y-25100000D03*
X41485000Y-23200000D03*
%TD*%
D13*
%TO.C,H3*%
X51000000Y-36000000D03*
D14*
X51000000Y-36000000D03*
%TD*%
D15*
%TO.C,J2*%
X15260000Y-25230000D03*
X15260000Y-27770000D03*
D16*
X17800000Y-25230000D03*
D17*
X17800000Y-27770000D03*
%TD*%
D13*
%TO.C,H2*%
X17000000Y-36000000D03*
D14*
X17000000Y-36000000D03*
%TD*%
D18*
%TO.C,L1*%
X31510000Y-31200000D03*
X39610000Y-31200000D03*
%TD*%
D12*
%TO.C,C1*%
X26085000Y-24900000D03*
X26085000Y-23000000D03*
%TD*%
D19*
%TO.C,D1*%
X23291000Y-24507000D03*
D20*
X23291000Y-23622000D03*
%TD*%
D13*
%TO.C,H1*%
X17000000Y-17000000D03*
D14*
X17000000Y-17000000D03*
%TD*%
D10*
%TO.C,R1*%
X33388000Y-19444000D03*
X35038000Y-19444000D03*
%TD*%
D21*
%TO.C,R4*%
X30090000Y-20206000D03*
X29450000Y-20206000D03*
%TD*%
D13*
%TO.C,H4*%
X51000000Y-17000000D03*
D14*
X51000000Y-17000000D03*
%TD*%
D22*
%TO.C,U1*%
X30981874Y-24001700D03*
X31482000Y-24001700D03*
X31982126Y-24001700D03*
X31982126Y-22506300D03*
X31482000Y-22506300D03*
X30981874Y-22506300D03*
%TD*%
D23*
%TO.C,C5*%
X43685000Y-24975000D03*
X43685000Y-23425000D03*
%TD*%
D24*
%TO.C,R5*%
X29704000Y-21410000D03*
X29704000Y-22050000D03*
%TD*%
D23*
%TO.C,C2*%
X28117000Y-24791000D03*
X28117000Y-23241000D03*
%TD*%
D15*
%TO.C,J1*%
X52500000Y-27770000D03*
X52500000Y-25230000D03*
D16*
X49960000Y-27770000D03*
D17*
X49960000Y-25230000D03*
%TD*%
D25*
%TO.C,C3*%
X30226000Y-19190000D03*
X29266000Y-19190000D03*
%TD*%
M02*
