%TF.GenerationSoftware,KiCad,Pcbnew,8.0.1*%
%TF.CreationDate,2025-05-13T16:21:41+05:45*%
%TF.ProjectId,12V-5V_buck_converter,3132562d-3556-45f6-9275-636b5f636f6e,rev?*%
%TF.SameCoordinates,Original*%
%TF.FileFunction,Copper,L1,Top*%
%TF.FilePolarity,Positive*%
%FSLAX46Y46*%
G04 Gerber Fmt 4.6, Leading zero omitted, Abs format (unit mm)*
G04 Created by KiCad (PCBNEW 8.0.1) date 2025-05-13 16:21:41*
%MOMM*%
%LPD*%
G01*
G04 APERTURE LIST*
G04 Aperture macros list*
%AMRoundRect*
0 Rectangle with rounded corners*
0 $1 Rounding radius*
0 $2 $3 $4 $5 $6 $7 $8 $9 X,Y pos of 4 corners*
0 Add a 4 corners polygon primitive as box body*
4,1,4,$2,$3,$4,$5,$6,$7,$8,$9,$2,$3,0*
0 Add four circle primitives for the rounded corners*
1,1,$1+$1,$2,$3*
1,1,$1+$1,$4,$5*
1,1,$1+$1,$6,$7*
1,1,$1+$1,$8,$9*
0 Add four rect primitives between the rounded corners*
20,1,$1+$1,$2,$3,$4,$5,0*
20,1,$1+$1,$4,$5,$6,$7,0*
20,1,$1+$1,$6,$7,$8,$9,0*
20,1,$1+$1,$8,$9,$2,$3,0*%
G04 Aperture macros list end*
%TA.AperFunction,SMDPad,CuDef*%
%ADD10RoundRect,0.200000X-0.200000X-0.275000X0.200000X-0.275000X0.200000X0.275000X-0.200000X0.275000X0*%
%TD*%
%TA.AperFunction,SMDPad,CuDef*%
%ADD11RoundRect,0.100000X-0.130000X-0.100000X0.130000X-0.100000X0.130000X0.100000X-0.130000X0.100000X0*%
%TD*%
%TA.AperFunction,SMDPad,CuDef*%
%ADD12RoundRect,0.250000X0.475000X-0.250000X0.475000X0.250000X-0.475000X0.250000X-0.475000X-0.250000X0*%
%TD*%
%TA.AperFunction,ComponentPad*%
%ADD13C,2.600000*%
%TD*%
%TA.AperFunction,ConnectorPad*%
%ADD14C,3.800000*%
%TD*%
%TA.AperFunction,ComponentPad*%
%ADD15R,2.200000X2.200000*%
%TD*%
%TA.AperFunction,ComponentPad*%
%ADD16C,2.200000*%
%TD*%
%TA.AperFunction,SMDPad,CuDef*%
%ADD17R,2.500000X3.200000*%
%TD*%
%TA.AperFunction,SMDPad,CuDef*%
%ADD18RoundRect,0.075000X0.275000X-0.390000X0.275000X0.390000X-0.275000X0.390000X-0.275000X-0.390000X0*%
%TD*%
%TA.AperFunction,SMDPad,CuDef*%
%ADD19RoundRect,0.075000X0.275000X-0.075000X0.275000X0.075000X-0.275000X0.075000X-0.275000X-0.075000X0*%
%TD*%
%TA.AperFunction,SMDPad,CuDef*%
%ADD20RoundRect,0.100000X0.130000X0.100000X-0.130000X0.100000X-0.130000X-0.100000X0.130000X-0.100000X0*%
%TD*%
%TA.AperFunction,SMDPad,CuDef*%
%ADD21R,0.279400X0.606400*%
%TD*%
%TA.AperFunction,SMDPad,CuDef*%
%ADD22RoundRect,0.225000X0.250000X-0.225000X0.250000X0.225000X-0.250000X0.225000X-0.250000X-0.225000X0*%
%TD*%
%TA.AperFunction,SMDPad,CuDef*%
%ADD23RoundRect,0.100000X-0.100000X0.130000X-0.100000X-0.130000X0.100000X-0.130000X0.100000X0.130000X0*%
%TD*%
%TA.AperFunction,SMDPad,CuDef*%
%ADD24RoundRect,0.140000X0.140000X0.170000X-0.140000X0.170000X-0.140000X-0.170000X0.140000X-0.170000X0*%
%TD*%
%TA.AperFunction,ViaPad*%
%ADD25C,0.600000*%
%TD*%
%TA.AperFunction,Conductor*%
%ADD26C,0.300000*%
%TD*%
G04 APERTURE END LIST*
D10*
%TO.P,R2,1*%
%TO.N,Net-(U1-EN)*%
X34989000Y-21082000D03*
%TO.P,R2,2*%
%TO.N,GND*%
X36639000Y-21082000D03*
%TD*%
D11*
%TO.P,R3,1*%
%TO.N,Net-(U1-PG)*%
X38796000Y-21209000D03*
%TO.P,R3,2*%
%TO.N,/Vout*%
X39436000Y-21209000D03*
%TD*%
D12*
%TO.P,C4,1*%
%TO.N,/Vout*%
X41485000Y-25100000D03*
%TO.P,C4,2*%
%TO.N,GND*%
X41485000Y-23200000D03*
%TD*%
D13*
%TO.P,H3,1,1*%
%TO.N,GND*%
X51000000Y-36000000D03*
D14*
X51000000Y-36000000D03*
%TD*%
D15*
%TO.P,J2,1,Pin_1*%
%TO.N,GND*%
X17800000Y-25230000D03*
D16*
%TO.P,J2,2,Pin_2*%
%TO.N,/Vin*%
X17800000Y-27770000D03*
%TD*%
D13*
%TO.P,H2,1,1*%
%TO.N,GND*%
X17000000Y-36000000D03*
D14*
X17000000Y-36000000D03*
%TD*%
D17*
%TO.P,L1,1,1*%
%TO.N,Net-(U1-SW)*%
X31510000Y-31200000D03*
%TO.P,L1,2,2*%
%TO.N,/Vout*%
X39610000Y-31200000D03*
%TD*%
D12*
%TO.P,C1,1*%
%TO.N,/Vin*%
X26085000Y-24900000D03*
%TO.P,C1,2*%
%TO.N,GND*%
X26085000Y-23000000D03*
%TD*%
D18*
%TO.P,D1,1,K*%
%TO.N,/Vin*%
X23291000Y-24507000D03*
D19*
%TO.P,D1,2,A*%
%TO.N,GND*%
X23291000Y-23622000D03*
%TD*%
D13*
%TO.P,H1,1,1*%
%TO.N,GND*%
X17000000Y-17000000D03*
D14*
X17000000Y-17000000D03*
%TD*%
D10*
%TO.P,R1,1*%
%TO.N,/Vin*%
X33388000Y-19444000D03*
%TO.P,R1,2*%
%TO.N,Net-(U1-EN)*%
X35038000Y-19444000D03*
%TD*%
D20*
%TO.P,R4,1*%
%TO.N,/Vout*%
X30090000Y-20206000D03*
%TO.P,R4,2*%
%TO.N,/FB*%
X29450000Y-20206000D03*
%TD*%
D13*
%TO.P,H4,1,1*%
%TO.N,GND*%
X51000000Y-17000000D03*
D14*
X51000000Y-17000000D03*
%TD*%
D21*
%TO.P,U1,1,VIN*%
%TO.N,/Vin*%
X30981874Y-24001700D03*
%TO.P,U1,2,SW*%
%TO.N,Net-(U1-SW)*%
X31482000Y-24001700D03*
%TO.P,U1,3,GND*%
%TO.N,GND*%
X31982126Y-24001700D03*
%TO.P,U1,4,PG*%
%TO.N,Net-(U1-PG)*%
X31982126Y-22506300D03*
%TO.P,U1,5,EN*%
%TO.N,Net-(U1-EN)*%
X31482000Y-22506300D03*
%TO.P,U1,6,FB*%
%TO.N,/FB*%
X30981874Y-22506300D03*
%TD*%
D22*
%TO.P,C5,1*%
%TO.N,/Vout*%
X43685000Y-24975000D03*
%TO.P,C5,2*%
%TO.N,GND*%
X43685000Y-23425000D03*
%TD*%
D23*
%TO.P,R5,1*%
%TO.N,/FB*%
X29704000Y-21410000D03*
%TO.P,R5,2*%
%TO.N,GND*%
X29704000Y-22050000D03*
%TD*%
D22*
%TO.P,C2,1*%
%TO.N,/Vin*%
X28117000Y-24791000D03*
%TO.P,C2,2*%
%TO.N,GND*%
X28117000Y-23241000D03*
%TD*%
D15*
%TO.P,J1,1,Pin_1*%
%TO.N,/Vout*%
X49960000Y-27770000D03*
D16*
%TO.P,J1,2,Pin_2*%
%TO.N,GND*%
X49960000Y-25230000D03*
%TD*%
D24*
%TO.P,C3,1*%
%TO.N,/Vout*%
X30226000Y-19190000D03*
%TO.P,C3,2*%
%TO.N,/FB*%
X29266000Y-19190000D03*
%TD*%
D25*
%TO.N,/Vin*%
X32285000Y-19400000D03*
X29285000Y-24800000D03*
%TO.N,GND*%
X34290000Y-33670875D03*
X41148000Y-22098000D03*
X34036000Y-26939875D03*
X34036000Y-23256875D03*
X27432000Y-36560125D03*
X24003000Y-30527625D03*
X24003000Y-36496625D03*
X47752000Y-20193000D03*
X27432000Y-33766125D03*
X27178000Y-16748125D03*
X37465000Y-16700500D03*
X40894000Y-20145375D03*
X48006000Y-30607000D03*
X29972000Y-23114000D03*
X34290000Y-30495875D03*
X48006000Y-36576000D03*
X28194000Y-22098000D03*
X21082000Y-30511750D03*
X47752000Y-16764000D03*
X44069000Y-22352000D03*
X20574000Y-36480750D03*
X33147000Y-23876000D03*
X47752000Y-27051000D03*
X37719000Y-36512500D03*
X34290000Y-36464875D03*
X37465000Y-23304500D03*
X36830000Y-26987500D03*
X40894000Y-16716375D03*
X33147000Y-23114000D03*
X20574000Y-33686750D03*
X24003000Y-33702625D03*
X23749000Y-20113625D03*
X33020000Y-20447000D03*
X44577000Y-36544250D03*
X33147000Y-22352000D03*
X30861000Y-36449000D03*
X27559000Y-22098000D03*
X43434000Y-22352000D03*
X37465000Y-20129500D03*
X23749000Y-16684625D03*
X34036000Y-16652875D03*
X48006000Y-33782000D03*
X32278805Y-20452000D03*
X44323000Y-27019250D03*
X26670000Y-21844000D03*
X20320000Y-16668750D03*
X44577000Y-33750250D03*
X27432000Y-30591125D03*
X20320000Y-23272750D03*
X30607000Y-16637000D03*
X47752000Y-23368000D03*
X26035000Y-21844000D03*
X24384000Y-23368000D03*
X26670000Y-20177125D03*
X44577000Y-30575250D03*
X41148000Y-36528375D03*
X40894000Y-27003375D03*
X44323000Y-16732250D03*
X41783000Y-22098000D03*
X44323000Y-20161250D03*
X21082000Y-20097750D03*
%TO.N,/Vout*%
X35687000Y-18415000D03*
X39610000Y-28334000D03*
X42672000Y-25146000D03*
X42672000Y-21844000D03*
%TD*%
D26*
%TO.N,/Vin*%
X32285000Y-19400000D02*
X33344000Y-19400000D01*
X33344000Y-19400000D02*
X33388000Y-19444000D01*
%TO.N,/Vout*%
X30090000Y-19567000D02*
X30226000Y-19431000D01*
X42037000Y-21209000D02*
X39436000Y-21209000D01*
X30226000Y-19190000D02*
X31001000Y-18415000D01*
X30090000Y-20206000D02*
X30090000Y-19567000D01*
X42672000Y-21844000D02*
X42037000Y-21209000D01*
X42626000Y-25100000D02*
X42672000Y-25146000D01*
X41485000Y-25100000D02*
X42626000Y-25100000D01*
X30226000Y-19431000D02*
X30226000Y-19190000D01*
X31001000Y-18415000D02*
X35687000Y-18415000D01*
%TO.N,/FB*%
X30988000Y-21717000D02*
X30981874Y-21723126D01*
X29704000Y-21410000D02*
X30681000Y-21410000D01*
X29266000Y-19190000D02*
X29266000Y-19487000D01*
X30681000Y-21410000D02*
X30988000Y-21717000D01*
X29704000Y-21410000D02*
X29450000Y-21156000D01*
X29266000Y-19487000D02*
X29450000Y-19671000D01*
X30981874Y-21723126D02*
X30981874Y-22506300D01*
X29450000Y-21156000D02*
X29450000Y-20206000D01*
X29450000Y-19671000D02*
X29450000Y-20206000D01*
%TO.N,Net-(U1-EN)*%
X31482000Y-21560178D02*
X31960178Y-21082000D01*
X31960178Y-21082000D02*
X34989000Y-21082000D01*
X35038000Y-19444000D02*
X35038000Y-21033000D01*
X31482000Y-22506300D02*
X31482000Y-21560178D01*
X35038000Y-21033000D02*
X34989000Y-21082000D01*
%TO.N,Net-(U1-PG)*%
X31982126Y-21865874D02*
X32286000Y-21562000D01*
X37274500Y-22098000D02*
X38163500Y-21209000D01*
X34036000Y-22098000D02*
X37274500Y-22098000D01*
X31982126Y-22506300D02*
X31982126Y-21865874D01*
X32286000Y-21562000D02*
X33500000Y-21562000D01*
X33500000Y-21562000D02*
X34036000Y-22098000D01*
X38163500Y-21209000D02*
X38796000Y-21209000D01*
%TD*%
%TA.AperFunction,Conductor*%
%TO.N,Net-(U1-SW)*%
G36*
X31566039Y-23641685D02*
G01*
X31611794Y-23694489D01*
X31623000Y-23746000D01*
X31623000Y-24511000D01*
X32475681Y-25363681D01*
X32509166Y-25425004D01*
X32512000Y-25451362D01*
X32512000Y-28702000D01*
X32983681Y-29173681D01*
X33017166Y-29235004D01*
X33020000Y-29261362D01*
X33020000Y-33095638D01*
X33000315Y-33162677D01*
X32983681Y-33183319D01*
X32675319Y-33491681D01*
X32613996Y-33525166D01*
X32587638Y-33528000D01*
X30404362Y-33528000D01*
X30337323Y-33508315D01*
X30316681Y-33491681D01*
X30008319Y-33183319D01*
X29974834Y-33121996D01*
X29972000Y-33095638D01*
X29972000Y-29007362D01*
X29991685Y-28940323D01*
X30008319Y-28919681D01*
X30099000Y-28829000D01*
X30099000Y-25832362D01*
X30118685Y-25765323D01*
X30135319Y-25744681D01*
X30516319Y-25363681D01*
X31242000Y-24638000D01*
X31242000Y-24523173D01*
X31261685Y-24456134D01*
X31262899Y-24454281D01*
X31310441Y-24383131D01*
X31310442Y-24383129D01*
X31322073Y-24324652D01*
X31322074Y-24324650D01*
X31322074Y-23746000D01*
X31341759Y-23678961D01*
X31394563Y-23633206D01*
X31446074Y-23622000D01*
X31499000Y-23622000D01*
X31566039Y-23641685D01*
G37*
%TD.AperFunction*%
%TD*%
%TA.AperFunction,Conductor*%
%TO.N,/Vin*%
G36*
X31058039Y-23641685D02*
G01*
X31103794Y-23694489D01*
X31115000Y-23746000D01*
X31115000Y-24268122D01*
X31095315Y-24335161D01*
X31094103Y-24337012D01*
X31092005Y-24340150D01*
X31091013Y-24341651D01*
X31089791Y-24343515D01*
X31064508Y-24398240D01*
X31044827Y-24465266D01*
X31044826Y-24465270D01*
X31044825Y-24465275D01*
X31037385Y-24517020D01*
X31008358Y-24580575D01*
X31002328Y-24587051D01*
X29990014Y-25599365D01*
X29990012Y-25599366D01*
X29975325Y-25615716D01*
X29975302Y-25615743D01*
X29958675Y-25636376D01*
X29958669Y-25636386D01*
X29934069Y-25683414D01*
X29911857Y-25713637D01*
X29813723Y-25811729D01*
X29801610Y-26900371D01*
X29781181Y-26967187D01*
X29761493Y-26990320D01*
X29316131Y-27399329D01*
X29253439Y-27430177D01*
X29232256Y-27432000D01*
X23989872Y-27432000D01*
X22318720Y-29295780D01*
X22259310Y-29332553D01*
X22226398Y-29337000D01*
X20574000Y-29337000D01*
X16812104Y-29337000D01*
X16745065Y-29317315D01*
X16735003Y-29310115D01*
X16175899Y-28866233D01*
X16135634Y-28809132D01*
X16129000Y-28769118D01*
X16129000Y-26975362D01*
X16148685Y-26908323D01*
X16165319Y-26887681D01*
X16346681Y-26706319D01*
X16408004Y-26672834D01*
X16434362Y-26670000D01*
X20719764Y-26670000D01*
X20719765Y-26670000D01*
X20728239Y-24718604D01*
X20748215Y-24651653D01*
X20769309Y-24626956D01*
X21427638Y-24034806D01*
X21490645Y-24004610D01*
X21510563Y-24003000D01*
X28676058Y-24003000D01*
X28743097Y-24022685D01*
X28763739Y-24039319D01*
X28881000Y-24156580D01*
X30352999Y-24156580D01*
X30353000Y-24156580D01*
X30480000Y-24003000D01*
X30578737Y-23706786D01*
X30618610Y-23649414D01*
X30683173Y-23622705D01*
X30696373Y-23622000D01*
X30991000Y-23622000D01*
X31058039Y-23641685D01*
G37*
%TD.AperFunction*%
%TD*%
%TA.AperFunction,Conductor*%
%TO.N,/Vout*%
G36*
X46136677Y-24169685D02*
G01*
X46157319Y-24186319D01*
X48514000Y-26543000D01*
X51383638Y-26543000D01*
X51450677Y-26562685D01*
X51471319Y-26579319D01*
X51525681Y-26633681D01*
X51559166Y-26695004D01*
X51562000Y-26721362D01*
X51562000Y-29031638D01*
X51542315Y-29098677D01*
X51525681Y-29119319D01*
X50729572Y-29915428D01*
X50668249Y-29948913D01*
X50641891Y-29951747D01*
X43327252Y-29951747D01*
X41783000Y-31495999D01*
X41783000Y-33476638D01*
X41763315Y-33543677D01*
X41746681Y-33564319D01*
X41692319Y-33618681D01*
X41630996Y-33652166D01*
X41604638Y-33655000D01*
X37589000Y-33655000D01*
X37521961Y-33635315D01*
X37476206Y-33582511D01*
X37465000Y-33531000D01*
X37465000Y-27003375D01*
X40388353Y-27003375D01*
X40408834Y-27145831D01*
X40460842Y-27259711D01*
X40468623Y-27276748D01*
X40562872Y-27385518D01*
X40683947Y-27463328D01*
X40683950Y-27463329D01*
X40683949Y-27463329D01*
X40822036Y-27503874D01*
X40822038Y-27503875D01*
X40822039Y-27503875D01*
X40965962Y-27503875D01*
X40965962Y-27503874D01*
X41104053Y-27463328D01*
X41225128Y-27385518D01*
X41319377Y-27276748D01*
X41379165Y-27145832D01*
X41397365Y-27019250D01*
X43817353Y-27019250D01*
X43837834Y-27161706D01*
X43882592Y-27259711D01*
X43897623Y-27292623D01*
X43991872Y-27401393D01*
X44112947Y-27479203D01*
X44112950Y-27479204D01*
X44112949Y-27479204D01*
X44251036Y-27519749D01*
X44251038Y-27519750D01*
X44251039Y-27519750D01*
X44394962Y-27519750D01*
X44394962Y-27519749D01*
X44533053Y-27479203D01*
X44654128Y-27401393D01*
X44748377Y-27292623D01*
X44808165Y-27161707D01*
X44824082Y-27051000D01*
X47246353Y-27051000D01*
X47266834Y-27193456D01*
X47297623Y-27260873D01*
X47326623Y-27324373D01*
X47420872Y-27433143D01*
X47541947Y-27510953D01*
X47541950Y-27510954D01*
X47541949Y-27510954D01*
X47680036Y-27551499D01*
X47680038Y-27551500D01*
X47680039Y-27551500D01*
X47823962Y-27551500D01*
X47823962Y-27551499D01*
X47962053Y-27510953D01*
X48083128Y-27433143D01*
X48177377Y-27324373D01*
X48237165Y-27193457D01*
X48257647Y-27051000D01*
X48237165Y-26908543D01*
X48177377Y-26777627D01*
X48083128Y-26668857D01*
X47962053Y-26591047D01*
X47962051Y-26591046D01*
X47962049Y-26591045D01*
X47962050Y-26591045D01*
X47823963Y-26550500D01*
X47823961Y-26550500D01*
X47680039Y-26550500D01*
X47680036Y-26550500D01*
X47541949Y-26591045D01*
X47420873Y-26668856D01*
X47326623Y-26777626D01*
X47326622Y-26777628D01*
X47266834Y-26908543D01*
X47246353Y-27051000D01*
X44824082Y-27051000D01*
X44828647Y-27019250D01*
X44808165Y-26876793D01*
X44748377Y-26745877D01*
X44654128Y-26637107D01*
X44533053Y-26559297D01*
X44533051Y-26559296D01*
X44533049Y-26559295D01*
X44533050Y-26559295D01*
X44394963Y-26518750D01*
X44394961Y-26518750D01*
X44251039Y-26518750D01*
X44251036Y-26518750D01*
X44112949Y-26559295D01*
X43991873Y-26637106D01*
X43897623Y-26745876D01*
X43897622Y-26745878D01*
X43837834Y-26876793D01*
X43817353Y-27019250D01*
X41397365Y-27019250D01*
X41399647Y-27003375D01*
X41379165Y-26860918D01*
X41319377Y-26730002D01*
X41225128Y-26621232D01*
X41104053Y-26543422D01*
X41104051Y-26543421D01*
X41104049Y-26543420D01*
X41104050Y-26543420D01*
X40965963Y-26502875D01*
X40965961Y-26502875D01*
X40822039Y-26502875D01*
X40822036Y-26502875D01*
X40683949Y-26543420D01*
X40562873Y-26621231D01*
X40468623Y-26730001D01*
X40468622Y-26730003D01*
X40408834Y-26860918D01*
X40388353Y-27003375D01*
X37465000Y-27003375D01*
X37465000Y-26086362D01*
X37484685Y-26019323D01*
X37501319Y-25998681D01*
X39313681Y-24186319D01*
X39375004Y-24152834D01*
X39401362Y-24150000D01*
X46069638Y-24150000D01*
X46136677Y-24169685D01*
G37*
%TD.AperFunction*%
%TD*%
%TA.AperFunction,Conductor*%
%TO.N,GND*%
G36*
X31991281Y-18785185D02*
G01*
X32037036Y-18837989D01*
X32046980Y-18907147D01*
X32017955Y-18970703D01*
X31991281Y-18993816D01*
X31953873Y-19017856D01*
X31859623Y-19126626D01*
X31859622Y-19126628D01*
X31799834Y-19257543D01*
X31779353Y-19400000D01*
X31799834Y-19542456D01*
X31845854Y-19643223D01*
X31859623Y-19673373D01*
X31953872Y-19782143D01*
X32074947Y-19859953D01*
X32074950Y-19859954D01*
X32074949Y-19859954D01*
X32213036Y-19900499D01*
X32213038Y-19900500D01*
X32213039Y-19900500D01*
X32356962Y-19900500D01*
X32356962Y-19900499D01*
X32495050Y-19859954D01*
X32495051Y-19859954D01*
X32536034Y-19833616D01*
X32616128Y-19782143D01*
X32616128Y-19782142D01*
X32618197Y-19780813D01*
X32685237Y-19761128D01*
X32752276Y-19780812D01*
X32798031Y-19833616D01*
X32801669Y-19842959D01*
X32802353Y-19844303D01*
X32802354Y-19844304D01*
X32859950Y-19957342D01*
X32859952Y-19957344D01*
X32859954Y-19957347D01*
X32949652Y-20047045D01*
X32949654Y-20047046D01*
X32949658Y-20047050D01*
X33062694Y-20104645D01*
X33062698Y-20104647D01*
X33156475Y-20119499D01*
X33156481Y-20119500D01*
X33619518Y-20119499D01*
X33713304Y-20104646D01*
X33826342Y-20047050D01*
X33916050Y-19957342D01*
X33973646Y-19844304D01*
X33973646Y-19844302D01*
X33973647Y-19844301D01*
X33988499Y-19750524D01*
X33988500Y-19750519D01*
X33988499Y-19137482D01*
X33973646Y-19043696D01*
X33923761Y-18945792D01*
X33910866Y-18877126D01*
X33937142Y-18812385D01*
X33994249Y-18772128D01*
X34034247Y-18765500D01*
X34391753Y-18765500D01*
X34458792Y-18785185D01*
X34504547Y-18837989D01*
X34514491Y-18907147D01*
X34502239Y-18945791D01*
X34481090Y-18987297D01*
X34452352Y-19043698D01*
X34437500Y-19137475D01*
X34437500Y-19750517D01*
X34442509Y-19782143D01*
X34452354Y-19844304D01*
X34509950Y-19957342D01*
X34599658Y-20047050D01*
X34599660Y-20047051D01*
X34619793Y-20057309D01*
X34670590Y-20105283D01*
X34687500Y-20167795D01*
X34687500Y-20333238D01*
X34667815Y-20400277D01*
X34619796Y-20443722D01*
X34550659Y-20478949D01*
X34550652Y-20478954D01*
X34460954Y-20568652D01*
X34460949Y-20568659D01*
X34412474Y-20663796D01*
X34364500Y-20714591D01*
X34301990Y-20731500D01*
X31914034Y-20731500D01*
X31824890Y-20755386D01*
X31824887Y-20755387D01*
X31744969Y-20801527D01*
X31744964Y-20801531D01*
X31244270Y-21302226D01*
X31182947Y-21335711D01*
X31113255Y-21330727D01*
X31068908Y-21302226D01*
X30896213Y-21129531D01*
X30896208Y-21129527D01*
X30816290Y-21083387D01*
X30816289Y-21083386D01*
X30816288Y-21083386D01*
X30727144Y-21059500D01*
X30727143Y-21059500D01*
X30059833Y-21059500D01*
X29992794Y-21039815D01*
X29984179Y-21032872D01*
X29976765Y-21027794D01*
X29874413Y-20982601D01*
X29821037Y-20937515D01*
X29800510Y-20870729D01*
X29800500Y-20869167D01*
X29800500Y-20730499D01*
X29820185Y-20663460D01*
X29872989Y-20617705D01*
X29924495Y-20606499D01*
X30264864Y-20606499D01*
X30264879Y-20606497D01*
X30264882Y-20606497D01*
X30289987Y-20603586D01*
X30289988Y-20603585D01*
X30289991Y-20603585D01*
X30392765Y-20558206D01*
X30472206Y-20478765D01*
X30517585Y-20375991D01*
X30520500Y-20350865D01*
X30520499Y-20061136D01*
X30518866Y-20047051D01*
X30517586Y-20036012D01*
X30517585Y-20036010D01*
X30517585Y-20036009D01*
X30472206Y-19933235D01*
X30465712Y-19923755D01*
X30468194Y-19922054D01*
X30443334Y-19876525D01*
X30440500Y-19850167D01*
X30440500Y-19779956D01*
X30460185Y-19712917D01*
X30512095Y-19667574D01*
X30564316Y-19643224D01*
X30649224Y-19558316D01*
X30699972Y-19449487D01*
X30706500Y-19399901D01*
X30706499Y-19256543D01*
X30726183Y-19189504D01*
X30742813Y-19168867D01*
X31109863Y-18801819D01*
X31171186Y-18768334D01*
X31197544Y-18765500D01*
X31924242Y-18765500D01*
X31991281Y-18785185D01*
G37*
%TD.AperFunction*%
%TA.AperFunction,Conductor*%
G36*
X52004418Y-14500816D02*
G01*
X52204561Y-14515130D01*
X52222063Y-14517647D01*
X52413797Y-14559355D01*
X52430755Y-14564334D01*
X52614609Y-14632909D01*
X52630701Y-14640259D01*
X52802904Y-14734288D01*
X52817784Y-14743849D01*
X52974867Y-14861441D01*
X52988237Y-14873027D01*
X53126972Y-15011762D01*
X53138558Y-15025132D01*
X53256146Y-15182210D01*
X53265711Y-15197095D01*
X53359740Y-15369298D01*
X53367090Y-15385390D01*
X53435662Y-15569236D01*
X53440646Y-15586212D01*
X53482351Y-15777931D01*
X53484869Y-15795442D01*
X53499184Y-15995580D01*
X53499500Y-16004427D01*
X53499500Y-24927809D01*
X53479815Y-24994848D01*
X53427011Y-25040603D01*
X53357853Y-25050547D01*
X53294297Y-25021522D01*
X53260939Y-24975261D01*
X53209397Y-24850827D01*
X53209390Y-24850814D01*
X53121789Y-24719711D01*
X53121786Y-24719707D01*
X53010292Y-24608213D01*
X53010288Y-24608210D01*
X52879185Y-24520609D01*
X52879172Y-24520602D01*
X52733501Y-24460264D01*
X52733489Y-24460261D01*
X52578845Y-24429500D01*
X52578842Y-24429500D01*
X52421158Y-24429500D01*
X52421155Y-24429500D01*
X52266510Y-24460261D01*
X52266498Y-24460264D01*
X52120827Y-24520602D01*
X52120814Y-24520609D01*
X51989711Y-24608210D01*
X51989707Y-24608213D01*
X51878213Y-24719707D01*
X51878210Y-24719711D01*
X51790609Y-24850814D01*
X51790602Y-24850827D01*
X51730264Y-24996498D01*
X51730261Y-24996510D01*
X51699500Y-25151153D01*
X51699500Y-25308846D01*
X51730261Y-25463489D01*
X51730264Y-25463501D01*
X51790602Y-25609172D01*
X51790609Y-25609185D01*
X51878210Y-25740288D01*
X51878213Y-25740292D01*
X51989707Y-25851786D01*
X51989711Y-25851789D01*
X52120814Y-25939390D01*
X52120827Y-25939397D01*
X52266498Y-25999735D01*
X52266503Y-25999737D01*
X52421153Y-26030499D01*
X52421156Y-26030500D01*
X52421158Y-26030500D01*
X52578844Y-26030500D01*
X52578845Y-26030499D01*
X52733497Y-25999737D01*
X52879179Y-25939394D01*
X53010289Y-25851789D01*
X53121789Y-25740289D01*
X53209394Y-25609179D01*
X53260939Y-25484738D01*
X53304779Y-25430334D01*
X53371074Y-25408269D01*
X53438773Y-25425548D01*
X53486384Y-25476685D01*
X53499500Y-25532190D01*
X53499500Y-27467809D01*
X53479815Y-27534848D01*
X53427011Y-27580603D01*
X53357853Y-27590547D01*
X53294297Y-27561522D01*
X53260939Y-27515261D01*
X53209397Y-27390827D01*
X53209390Y-27390814D01*
X53121789Y-27259711D01*
X53121786Y-27259707D01*
X53010292Y-27148213D01*
X53010288Y-27148210D01*
X52879185Y-27060609D01*
X52879172Y-27060602D01*
X52733501Y-27000264D01*
X52733489Y-27000261D01*
X52578845Y-26969500D01*
X52578842Y-26969500D01*
X52421158Y-26969500D01*
X52421155Y-26969500D01*
X52266510Y-27000261D01*
X52266498Y-27000264D01*
X52120827Y-27060602D01*
X52120814Y-27060609D01*
X51989711Y-27148210D01*
X51989707Y-27148213D01*
X51979181Y-27158740D01*
X51917858Y-27192225D01*
X51848166Y-27187241D01*
X51792233Y-27145369D01*
X51767816Y-27079905D01*
X51767500Y-27071059D01*
X51767500Y-26721361D01*
X51767073Y-26713397D01*
X51766322Y-26699393D01*
X51763488Y-26673035D01*
X51739529Y-26596518D01*
X51706044Y-26535195D01*
X51699128Y-26525956D01*
X51671001Y-26488384D01*
X51670998Y-26488381D01*
X51670991Y-26488371D01*
X51647120Y-26464500D01*
X51616634Y-26434013D01*
X51616633Y-26434012D01*
X51600283Y-26419325D01*
X51600269Y-26419313D01*
X51579620Y-26402672D01*
X51508575Y-26365509D01*
X51441543Y-26345826D01*
X51440894Y-26345732D01*
X51383638Y-26337500D01*
X51383634Y-26337500D01*
X48650482Y-26337500D01*
X48583443Y-26317815D01*
X48562801Y-26301181D01*
X46302634Y-24041013D01*
X46302633Y-24041012D01*
X46286283Y-24026325D01*
X46286269Y-24026313D01*
X46265620Y-24009672D01*
X46194575Y-23972509D01*
X46127543Y-23952826D01*
X46126894Y-23952732D01*
X46069638Y-23944500D01*
X39401362Y-23944500D01*
X39401361Y-23944500D01*
X39379381Y-23945678D01*
X39353034Y-23948511D01*
X39353032Y-23948512D01*
X39276521Y-23972470D01*
X39276516Y-23972471D01*
X39215188Y-24005960D01*
X39168384Y-24040998D01*
X39168363Y-24041016D01*
X37356013Y-25853365D01*
X37356012Y-25853366D01*
X37341325Y-25869716D01*
X37341313Y-25869730D01*
X37324672Y-25890379D01*
X37287509Y-25961424D01*
X37267826Y-26028456D01*
X37259500Y-26086365D01*
X37259500Y-33531007D01*
X37264197Y-33574686D01*
X37275397Y-33626174D01*
X37277342Y-33634133D01*
X37277890Y-33636373D01*
X37316929Y-33709634D01*
X37320899Y-33717083D01*
X37320901Y-33717086D01*
X37366660Y-33769895D01*
X37384242Y-33787839D01*
X37384246Y-33787843D01*
X37384247Y-33787844D01*
X37384249Y-33787845D01*
X37404261Y-33799039D01*
X37464063Y-33832490D01*
X37531102Y-33852175D01*
X37589000Y-33860500D01*
X37589004Y-33860500D01*
X41604639Y-33860500D01*
X41607180Y-33860363D01*
X41626607Y-33859322D01*
X41626614Y-33859321D01*
X41626618Y-33859321D01*
X41652965Y-33856488D01*
X41729482Y-33832529D01*
X41790805Y-33799044D01*
X41837629Y-33763991D01*
X41891991Y-33709629D01*
X41906693Y-33693262D01*
X41923327Y-33672620D01*
X41960490Y-33601575D01*
X41980175Y-33534536D01*
X41988500Y-33476638D01*
X41988500Y-31632481D01*
X42008185Y-31565442D01*
X42024819Y-31544800D01*
X43376053Y-30193566D01*
X43437376Y-30160081D01*
X43463734Y-30157247D01*
X50641892Y-30157247D01*
X50644433Y-30157110D01*
X50663860Y-30156069D01*
X50663867Y-30156068D01*
X50663871Y-30156068D01*
X50690218Y-30153235D01*
X50766735Y-30129276D01*
X50828058Y-30095791D01*
X50874882Y-30060738D01*
X51670991Y-29264629D01*
X51685693Y-29248262D01*
X51702327Y-29227620D01*
X51739490Y-29156575D01*
X51759175Y-29089536D01*
X51767500Y-29031638D01*
X51767500Y-28468941D01*
X51787185Y-28401902D01*
X51839989Y-28356147D01*
X51909147Y-28346203D01*
X51972703Y-28375228D01*
X51979181Y-28381260D01*
X51989707Y-28391786D01*
X51989711Y-28391789D01*
X52120814Y-28479390D01*
X52120827Y-28479397D01*
X52266498Y-28539735D01*
X52266503Y-28539737D01*
X52396112Y-28565518D01*
X52421153Y-28570499D01*
X52421156Y-28570500D01*
X52421158Y-28570500D01*
X52578844Y-28570500D01*
X52578845Y-28570499D01*
X52733497Y-28539737D01*
X52879179Y-28479394D01*
X53010289Y-28391789D01*
X53121789Y-28280289D01*
X53209394Y-28149179D01*
X53260939Y-28024738D01*
X53304779Y-27970334D01*
X53371074Y-27948269D01*
X53438773Y-27965548D01*
X53486384Y-28016685D01*
X53499500Y-28072190D01*
X53499500Y-36995572D01*
X53499184Y-37004419D01*
X53484869Y-37204557D01*
X53482351Y-37222068D01*
X53440646Y-37413787D01*
X53435662Y-37430763D01*
X53367090Y-37614609D01*
X53359740Y-37630701D01*
X53265711Y-37802904D01*
X53256146Y-37817789D01*
X53138558Y-37974867D01*
X53126972Y-37988237D01*
X52988237Y-38126972D01*
X52974867Y-38138558D01*
X52817789Y-38256146D01*
X52802904Y-38265711D01*
X52630701Y-38359740D01*
X52614609Y-38367090D01*
X52430763Y-38435662D01*
X52413787Y-38440646D01*
X52222068Y-38482351D01*
X52204557Y-38484869D01*
X52023779Y-38497799D01*
X52004417Y-38499184D01*
X51995572Y-38499500D01*
X16004428Y-38499500D01*
X15995582Y-38499184D01*
X15973622Y-38497613D01*
X15795442Y-38484869D01*
X15777931Y-38482351D01*
X15586212Y-38440646D01*
X15569236Y-38435662D01*
X15385390Y-38367090D01*
X15369298Y-38359740D01*
X15197095Y-38265711D01*
X15182210Y-38256146D01*
X15025132Y-38138558D01*
X15011762Y-38126972D01*
X14873027Y-37988237D01*
X14861441Y-37974867D01*
X14743849Y-37817784D01*
X14734288Y-37802904D01*
X14640259Y-37630701D01*
X14632909Y-37614609D01*
X14572091Y-37451551D01*
X14564334Y-37430755D01*
X14559355Y-37413797D01*
X14517647Y-37222063D01*
X14515130Y-37204556D01*
X14500816Y-37004418D01*
X14500500Y-36995572D01*
X14500500Y-28441941D01*
X14520185Y-28374902D01*
X14572989Y-28329147D01*
X14642147Y-28319203D01*
X14705703Y-28348228D01*
X14712181Y-28354260D01*
X14749707Y-28391786D01*
X14749711Y-28391789D01*
X14880814Y-28479390D01*
X14880827Y-28479397D01*
X15026498Y-28539735D01*
X15026503Y-28539737D01*
X15156112Y-28565518D01*
X15181153Y-28570499D01*
X15181156Y-28570500D01*
X15181158Y-28570500D01*
X15338844Y-28570500D01*
X15338845Y-28570499D01*
X15493497Y-28539737D01*
X15639179Y-28479394D01*
X15730610Y-28418301D01*
X15797286Y-28397424D01*
X15864666Y-28415908D01*
X15911357Y-28467887D01*
X15923500Y-28521404D01*
X15923500Y-28769127D01*
X15926267Y-28802731D01*
X15932871Y-28842563D01*
X15932938Y-28842963D01*
X15967687Y-28927555D01*
X15967689Y-28927559D01*
X16007954Y-28984660D01*
X16048122Y-29027178D01*
X16048126Y-29027182D01*
X16607196Y-29471037D01*
X16607216Y-29471052D01*
X16607226Y-29471060D01*
X16615417Y-29477236D01*
X16625479Y-29484436D01*
X16687167Y-29514490D01*
X16754206Y-29534175D01*
X16812104Y-29542500D01*
X16812108Y-29542500D01*
X22226389Y-29542500D01*
X22226398Y-29542500D01*
X22253915Y-29540649D01*
X22286827Y-29536202D01*
X22367466Y-29507289D01*
X22426876Y-29470516D01*
X22471722Y-29432969D01*
X22471728Y-29432963D01*
X23753453Y-28003497D01*
X24044663Y-27678719D01*
X24104073Y-27641947D01*
X24136985Y-27637500D01*
X29232253Y-27637500D01*
X29232256Y-27637500D01*
X29241066Y-27637121D01*
X29249879Y-27636743D01*
X29256937Y-27636135D01*
X29271059Y-27634920D01*
X29322485Y-27620601D01*
X29344166Y-27614565D01*
X29344168Y-27614564D01*
X29406860Y-27583716D01*
X29455133Y-27550685D01*
X29685625Y-27339006D01*
X29748317Y-27308159D01*
X29817733Y-27316101D01*
X29871836Y-27360313D01*
X29893448Y-27426756D01*
X29893500Y-27430336D01*
X29893500Y-28692911D01*
X29873815Y-28759950D01*
X29861748Y-28775774D01*
X29848323Y-28790718D01*
X29848313Y-28790730D01*
X29831672Y-28811379D01*
X29794509Y-28882424D01*
X29774826Y-28949456D01*
X29766500Y-29007365D01*
X29766500Y-33095638D01*
X29767678Y-33117618D01*
X29770511Y-33143965D01*
X29770512Y-33143967D01*
X29794470Y-33220478D01*
X29794471Y-33220483D01*
X29808872Y-33246855D01*
X29827956Y-33281805D01*
X29827958Y-33281808D01*
X29827960Y-33281811D01*
X29862998Y-33328615D01*
X29863002Y-33328619D01*
X29863009Y-33328629D01*
X29863013Y-33328633D01*
X29863016Y-33328636D01*
X30171365Y-33636986D01*
X30171366Y-33636987D01*
X30187716Y-33651674D01*
X30187730Y-33651686D01*
X30187738Y-33651693D01*
X30196136Y-33658460D01*
X30208379Y-33668327D01*
X30279424Y-33705490D01*
X30346456Y-33725173D01*
X30346458Y-33725173D01*
X30346464Y-33725175D01*
X30404362Y-33733500D01*
X30404366Y-33733500D01*
X32587639Y-33733500D01*
X32590180Y-33733363D01*
X32609607Y-33732322D01*
X32609614Y-33732321D01*
X32609618Y-33732321D01*
X32635965Y-33729488D01*
X32712482Y-33705529D01*
X32773805Y-33672044D01*
X32820629Y-33636991D01*
X33128991Y-33328629D01*
X33143693Y-33312262D01*
X33160327Y-33291620D01*
X33197490Y-33220575D01*
X33217175Y-33153536D01*
X33225500Y-33095638D01*
X33225500Y-29261362D01*
X33224322Y-29239393D01*
X33221488Y-29213035D01*
X33197529Y-29136518D01*
X33164044Y-29075195D01*
X33128991Y-29028371D01*
X32753819Y-28653199D01*
X32720334Y-28591876D01*
X32717500Y-28565518D01*
X32717500Y-25451361D01*
X32716321Y-25429381D01*
X32713488Y-25403034D01*
X32713487Y-25403032D01*
X32689529Y-25326518D01*
X32656044Y-25265195D01*
X32620991Y-25218371D01*
X31864819Y-24462199D01*
X31831334Y-24400876D01*
X31828500Y-24374518D01*
X31828500Y-23746008D01*
X31828499Y-23745992D01*
X31823802Y-23702311D01*
X31823796Y-23702271D01*
X31823789Y-23702189D01*
X31823448Y-23699014D01*
X31823533Y-23699004D01*
X31822200Y-23682443D01*
X31822200Y-23678749D01*
X31822199Y-23678747D01*
X31810568Y-23620270D01*
X31810567Y-23620269D01*
X31766252Y-23553947D01*
X31759689Y-23547384D01*
X31745051Y-23534469D01*
X31743029Y-23532135D01*
X31721345Y-23507111D01*
X31703754Y-23489157D01*
X31703752Y-23489156D01*
X31703750Y-23489154D01*
X31623940Y-23444511D01*
X31623935Y-23444509D01*
X31556903Y-23424826D01*
X31556899Y-23424825D01*
X31556898Y-23424825D01*
X31499000Y-23416500D01*
X31446074Y-23416500D01*
X31446066Y-23416500D01*
X31402387Y-23421197D01*
X31350899Y-23432397D01*
X31340701Y-23434890D01*
X31340693Y-23434893D01*
X31276538Y-23469079D01*
X31208117Y-23483233D01*
X31157694Y-23467867D01*
X31115937Y-23444510D01*
X31115934Y-23444509D01*
X31115935Y-23444509D01*
X31048903Y-23424826D01*
X31048899Y-23424825D01*
X31048898Y-23424825D01*
X30991000Y-23416500D01*
X30696373Y-23416500D01*
X30696371Y-23416500D01*
X30685398Y-23416792D01*
X30672220Y-23417496D01*
X30672206Y-23417498D01*
X30604626Y-23432810D01*
X30604609Y-23432816D01*
X30540057Y-23459520D01*
X30540051Y-23459523D01*
X30517463Y-23470529D01*
X30517458Y-23470533D01*
X30449861Y-23532135D01*
X30409988Y-23589506D01*
X30383784Y-23641796D01*
X30383783Y-23641798D01*
X30308952Y-23866292D01*
X30269077Y-23923667D01*
X30204514Y-23950376D01*
X30191315Y-23951080D01*
X29017483Y-23951080D01*
X28950444Y-23931395D01*
X28929802Y-23914761D01*
X28909053Y-23894012D01*
X28892703Y-23879325D01*
X28892689Y-23879313D01*
X28872040Y-23862672D01*
X28800995Y-23825509D01*
X28733963Y-23805826D01*
X28733314Y-23805732D01*
X28676058Y-23797500D01*
X21510563Y-23797500D01*
X21510562Y-23797500D01*
X21507251Y-23797633D01*
X21494006Y-23798168D01*
X21474088Y-23799778D01*
X21474085Y-23799778D01*
X21401834Y-23819291D01*
X21338823Y-23849490D01*
X21290210Y-23882018D01*
X20631881Y-24474169D01*
X20631876Y-24474173D01*
X20613055Y-24493484D01*
X20613037Y-24493503D01*
X20591955Y-24518187D01*
X20551295Y-24592893D01*
X20551294Y-24592895D01*
X20551293Y-24592898D01*
X20546724Y-24608211D01*
X20531316Y-24659851D01*
X20531314Y-24659859D01*
X20522741Y-24717709D01*
X20522740Y-24717719D01*
X20515692Y-26341038D01*
X20495716Y-26407992D01*
X20442714Y-26453517D01*
X20391693Y-26464500D01*
X16434361Y-26464500D01*
X16412381Y-26465678D01*
X16386034Y-26468511D01*
X16386032Y-26468512D01*
X16309521Y-26492470D01*
X16309516Y-26492471D01*
X16248188Y-26525960D01*
X16201384Y-26560998D01*
X16201363Y-26561016D01*
X16020013Y-26742365D01*
X16020012Y-26742366D01*
X16005325Y-26758716D01*
X16005313Y-26758730D01*
X15988672Y-26779379D01*
X15951509Y-26850424D01*
X15931826Y-26917456D01*
X15931825Y-26917464D01*
X15924698Y-26967036D01*
X15923500Y-26975365D01*
X15923500Y-27018595D01*
X15903815Y-27085634D01*
X15851011Y-27131389D01*
X15781853Y-27141333D01*
X15730609Y-27121697D01*
X15639185Y-27060609D01*
X15639172Y-27060602D01*
X15493501Y-27000264D01*
X15493489Y-27000261D01*
X15338845Y-26969500D01*
X15338842Y-26969500D01*
X15181158Y-26969500D01*
X15181155Y-26969500D01*
X15026510Y-27000261D01*
X15026498Y-27000264D01*
X14880827Y-27060602D01*
X14880814Y-27060609D01*
X14749711Y-27148210D01*
X14749707Y-27148213D01*
X14712181Y-27185740D01*
X14650858Y-27219225D01*
X14581166Y-27214241D01*
X14525233Y-27172369D01*
X14500816Y-27106905D01*
X14500500Y-27098059D01*
X14500500Y-25901941D01*
X14520185Y-25834902D01*
X14572989Y-25789147D01*
X14642147Y-25779203D01*
X14705703Y-25808228D01*
X14712181Y-25814260D01*
X14749707Y-25851786D01*
X14749711Y-25851789D01*
X14880814Y-25939390D01*
X14880827Y-25939397D01*
X15026498Y-25999735D01*
X15026503Y-25999737D01*
X15181153Y-26030499D01*
X15181156Y-26030500D01*
X15181158Y-26030500D01*
X15338844Y-26030500D01*
X15338845Y-26030499D01*
X15493497Y-25999737D01*
X15639179Y-25939394D01*
X15770289Y-25851789D01*
X15881789Y-25740289D01*
X15969394Y-25609179D01*
X16029737Y-25463497D01*
X16060500Y-25308842D01*
X16060500Y-25151158D01*
X16060500Y-25151155D01*
X16060499Y-25151153D01*
X16038509Y-25040603D01*
X16029737Y-24996503D01*
X16029735Y-24996498D01*
X15969397Y-24850827D01*
X15969390Y-24850814D01*
X15881789Y-24719711D01*
X15881786Y-24719707D01*
X15770292Y-24608213D01*
X15770288Y-24608210D01*
X15639185Y-24520609D01*
X15639172Y-24520602D01*
X15493501Y-24460264D01*
X15493489Y-24460261D01*
X15338845Y-24429500D01*
X15338842Y-24429500D01*
X15181158Y-24429500D01*
X15181155Y-24429500D01*
X15026510Y-24460261D01*
X15026498Y-24460264D01*
X14880827Y-24520602D01*
X14880814Y-24520609D01*
X14749711Y-24608210D01*
X14749707Y-24608213D01*
X14712181Y-24645740D01*
X14650858Y-24679225D01*
X14581166Y-24674241D01*
X14525233Y-24632369D01*
X14500816Y-24566905D01*
X14500500Y-24558059D01*
X14500500Y-19399894D01*
X28785500Y-19399894D01*
X28785501Y-19399900D01*
X28792028Y-19449487D01*
X28792029Y-19449489D01*
X28792029Y-19449490D01*
X28842776Y-19558316D01*
X28927684Y-19643224D01*
X28936571Y-19649447D01*
X28935360Y-19651176D01*
X28977240Y-19688048D01*
X28979784Y-19692260D01*
X28985530Y-19702212D01*
X29033842Y-19750524D01*
X29055460Y-19772141D01*
X29088945Y-19833464D01*
X29083961Y-19903156D01*
X29070080Y-19929897D01*
X29067795Y-19933231D01*
X29022415Y-20036006D01*
X29022415Y-20036008D01*
X29019500Y-20061131D01*
X29019500Y-20350856D01*
X29019502Y-20350882D01*
X29022413Y-20375987D01*
X29022415Y-20375991D01*
X29067793Y-20478764D01*
X29074288Y-20488245D01*
X29071805Y-20489945D01*
X29096666Y-20535475D01*
X29099500Y-20561833D01*
X29099500Y-21202144D01*
X29120771Y-21281530D01*
X29123386Y-21291288D01*
X29142166Y-21323815D01*
X29169529Y-21371210D01*
X29169531Y-21371213D01*
X29267181Y-21468863D01*
X29300666Y-21530186D01*
X29303500Y-21556540D01*
X29303500Y-21584855D01*
X29303502Y-21584881D01*
X29306414Y-21609988D01*
X29306415Y-21609991D01*
X29351793Y-21712764D01*
X29351794Y-21712765D01*
X29431235Y-21792206D01*
X29534009Y-21837585D01*
X29559135Y-21840500D01*
X29848864Y-21840499D01*
X29848879Y-21840497D01*
X29848882Y-21840497D01*
X29873987Y-21837586D01*
X29873988Y-21837585D01*
X29873991Y-21837585D01*
X29976765Y-21792206D01*
X29976767Y-21792203D01*
X29986245Y-21785712D01*
X29987945Y-21788194D01*
X30033475Y-21763334D01*
X30059833Y-21760500D01*
X30484456Y-21760500D01*
X30551495Y-21780185D01*
X30572137Y-21796819D01*
X30595055Y-21819737D01*
X30628540Y-21881060D01*
X30631374Y-21907418D01*
X30631374Y-22552445D01*
X30637449Y-22575117D01*
X30641674Y-22607209D01*
X30641674Y-22829252D01*
X30653305Y-22887729D01*
X30653306Y-22887730D01*
X30697621Y-22954052D01*
X30763943Y-22998367D01*
X30763944Y-22998368D01*
X30822421Y-23009999D01*
X30822424Y-23010000D01*
X30822426Y-23010000D01*
X31141324Y-23010000D01*
X31141325Y-23009999D01*
X31158986Y-23006486D01*
X31207746Y-22996788D01*
X31256128Y-22996788D01*
X31322547Y-23009999D01*
X31322550Y-23010000D01*
X31322552Y-23010000D01*
X31641450Y-23010000D01*
X31641451Y-23009999D01*
X31659112Y-23006486D01*
X31707872Y-22996788D01*
X31756254Y-22996788D01*
X31822673Y-23009999D01*
X31822676Y-23010000D01*
X31822678Y-23010000D01*
X32141576Y-23010000D01*
X32141577Y-23009999D01*
X32156394Y-23007052D01*
X32200055Y-22998368D01*
X32200055Y-22998367D01*
X32200057Y-22998367D01*
X32266378Y-22954052D01*
X32310693Y-22887731D01*
X32310693Y-22887729D01*
X32310694Y-22887729D01*
X32322325Y-22829252D01*
X32322326Y-22829250D01*
X32322326Y-22607209D01*
X32326551Y-22575117D01*
X32328010Y-22569669D01*
X32332626Y-22552444D01*
X32332626Y-22062418D01*
X32352311Y-21995379D01*
X32368945Y-21974737D01*
X32394863Y-21948819D01*
X32456186Y-21915334D01*
X32482544Y-21912500D01*
X33303456Y-21912500D01*
X33370495Y-21932185D01*
X33391137Y-21948819D01*
X33820787Y-22378469D01*
X33900712Y-22424614D01*
X33989856Y-22448500D01*
X33989858Y-22448500D01*
X37320642Y-22448500D01*
X37320644Y-22448500D01*
X37409788Y-22424614D01*
X37489712Y-22378470D01*
X38272363Y-21595819D01*
X38333686Y-21562334D01*
X38360044Y-21559500D01*
X38463215Y-21559500D01*
X38513300Y-21570065D01*
X38596009Y-21606585D01*
X38621135Y-21609500D01*
X38970864Y-21609499D01*
X38970879Y-21609497D01*
X38970882Y-21609497D01*
X38995987Y-21606586D01*
X38995987Y-21606585D01*
X38995991Y-21606585D01*
X39065915Y-21575710D01*
X39135190Y-21566639D01*
X39166085Y-21575710D01*
X39236009Y-21606585D01*
X39261135Y-21609500D01*
X39610864Y-21609499D01*
X39610879Y-21609497D01*
X39610882Y-21609497D01*
X39635987Y-21606586D01*
X39635991Y-21606585D01*
X39718699Y-21570066D01*
X39768785Y-21559500D01*
X41840456Y-21559500D01*
X41907495Y-21579185D01*
X41928137Y-21595819D01*
X42135495Y-21803177D01*
X42168980Y-21864500D01*
X42170552Y-21873210D01*
X42186834Y-21986456D01*
X42246622Y-22117371D01*
X42246623Y-22117373D01*
X42340872Y-22226143D01*
X42461947Y-22303953D01*
X42461950Y-22303954D01*
X42461949Y-22303954D01*
X42600036Y-22344499D01*
X42600038Y-22344500D01*
X42600039Y-22344500D01*
X42743962Y-22344500D01*
X42743962Y-22344499D01*
X42882053Y-22303953D01*
X43003128Y-22226143D01*
X43097377Y-22117373D01*
X43157165Y-21986457D01*
X43177647Y-21844000D01*
X43157165Y-21701543D01*
X43097377Y-21570627D01*
X43003128Y-21461857D01*
X42882053Y-21384047D01*
X42882051Y-21384046D01*
X42882049Y-21384045D01*
X42882050Y-21384045D01*
X42743963Y-21343500D01*
X42743961Y-21343500D01*
X42718544Y-21343500D01*
X42651505Y-21323815D01*
X42630863Y-21307181D01*
X42252213Y-20928531D01*
X42252208Y-20928527D01*
X42172290Y-20882387D01*
X42172289Y-20882386D01*
X42172288Y-20882386D01*
X42083144Y-20858500D01*
X42083143Y-20858500D01*
X39768785Y-20858500D01*
X39718699Y-20847934D01*
X39678577Y-20830218D01*
X39635992Y-20811415D01*
X39610865Y-20808500D01*
X39261143Y-20808500D01*
X39261117Y-20808502D01*
X39236012Y-20811413D01*
X39236011Y-20811414D01*
X39166085Y-20842289D01*
X39096807Y-20851360D01*
X39065914Y-20842289D01*
X38995991Y-20811415D01*
X38970865Y-20808500D01*
X38621143Y-20808500D01*
X38621117Y-20808502D01*
X38596012Y-20811413D01*
X38596008Y-20811414D01*
X38513301Y-20847934D01*
X38463215Y-20858500D01*
X38117356Y-20858500D01*
X38028212Y-20882386D01*
X38028209Y-20882387D01*
X37948291Y-20928527D01*
X37948286Y-20928531D01*
X37165637Y-21711181D01*
X37104314Y-21744666D01*
X37077956Y-21747500D01*
X35641871Y-21747500D01*
X35574832Y-21727815D01*
X35529077Y-21675011D01*
X35519133Y-21605853D01*
X35531385Y-21567208D01*
X35574646Y-21482304D01*
X35574646Y-21482302D01*
X35574647Y-21482301D01*
X35589499Y-21388524D01*
X35589500Y-21388519D01*
X35589499Y-20775482D01*
X35574646Y-20681696D01*
X35517050Y-20568658D01*
X35517046Y-20568654D01*
X35517045Y-20568652D01*
X35424819Y-20476426D01*
X35391334Y-20415103D01*
X35388500Y-20388745D01*
X35388500Y-20167795D01*
X35408185Y-20100756D01*
X35456207Y-20057309D01*
X35476342Y-20047050D01*
X35566050Y-19957342D01*
X35623646Y-19844304D01*
X35623646Y-19844302D01*
X35623647Y-19844301D01*
X35638499Y-19750524D01*
X35638500Y-19750519D01*
X35638499Y-19137482D01*
X35626053Y-19058895D01*
X35635009Y-18989603D01*
X35680006Y-18936152D01*
X35746757Y-18915513D01*
X35748527Y-18915500D01*
X35758962Y-18915500D01*
X35758962Y-18915499D01*
X35866121Y-18884035D01*
X35897050Y-18874954D01*
X35897050Y-18874953D01*
X35897053Y-18874953D01*
X36018128Y-18797143D01*
X36112377Y-18688373D01*
X36172165Y-18557457D01*
X36192647Y-18415000D01*
X36172165Y-18272543D01*
X36112377Y-18141627D01*
X36018128Y-18032857D01*
X35897053Y-17955047D01*
X35897051Y-17955046D01*
X35897049Y-17955045D01*
X35897050Y-17955045D01*
X35758963Y-17914500D01*
X35758961Y-17914500D01*
X35615039Y-17914500D01*
X35615036Y-17914500D01*
X35476949Y-17955045D01*
X35355876Y-18032854D01*
X35355874Y-18032855D01*
X35355872Y-18032857D01*
X35355870Y-18032858D01*
X35354312Y-18034210D01*
X35352427Y-18035070D01*
X35348411Y-18037652D01*
X35348039Y-18037074D01*
X35290757Y-18063237D01*
X35273105Y-18064500D01*
X30954856Y-18064500D01*
X30871073Y-18086948D01*
X30871074Y-18086949D01*
X30865712Y-18088385D01*
X30865708Y-18088387D01*
X30785791Y-18134527D01*
X30785786Y-18134531D01*
X30277135Y-18643181D01*
X30215812Y-18676666D01*
X30189455Y-18679500D01*
X30046105Y-18679500D01*
X30030386Y-18681569D01*
X29996513Y-18686028D01*
X29996511Y-18686029D01*
X29996509Y-18686029D01*
X29887683Y-18736776D01*
X29833681Y-18790779D01*
X29772358Y-18824264D01*
X29702666Y-18819280D01*
X29658319Y-18790779D01*
X29604316Y-18736776D01*
X29495487Y-18686028D01*
X29495485Y-18686027D01*
X29495486Y-18686027D01*
X29445902Y-18679500D01*
X29086105Y-18679500D01*
X29070386Y-18681569D01*
X29036513Y-18686028D01*
X29036511Y-18686029D01*
X29036509Y-18686029D01*
X28927683Y-18736776D01*
X28842776Y-18821683D01*
X28792027Y-18930514D01*
X28785500Y-18980098D01*
X28785500Y-19399894D01*
X14500500Y-19399894D01*
X14500500Y-16004427D01*
X14500816Y-15995581D01*
X14515130Y-15795443D01*
X14515131Y-15795442D01*
X14515130Y-15795436D01*
X14517646Y-15777938D01*
X14559356Y-15586199D01*
X14564333Y-15569248D01*
X14632911Y-15385385D01*
X14640259Y-15369298D01*
X14702815Y-15254734D01*
X14734291Y-15197089D01*
X14743845Y-15182221D01*
X14861448Y-15025123D01*
X14873020Y-15011769D01*
X15011769Y-14873020D01*
X15025123Y-14861448D01*
X15182221Y-14743845D01*
X15197089Y-14734291D01*
X15369298Y-14640258D01*
X15385385Y-14632911D01*
X15569248Y-14564333D01*
X15586199Y-14559356D01*
X15777938Y-14517646D01*
X15795436Y-14515130D01*
X15995582Y-14500816D01*
X16004428Y-14500500D01*
X16065892Y-14500500D01*
X51934108Y-14500500D01*
X51995572Y-14500500D01*
X52004418Y-14500816D01*
G37*
%TD.AperFunction*%
%TA.AperFunction,Conductor*%
G36*
X47811521Y-26761022D02*
G01*
X47825988Y-26765269D01*
X47858694Y-26774872D01*
X47890798Y-26789533D01*
X47924123Y-26810949D01*
X47932174Y-26816124D01*
X47958844Y-26839234D01*
X47991046Y-26876396D01*
X48010128Y-26906089D01*
X48030554Y-26950816D01*
X48040498Y-26984680D01*
X48047496Y-27033352D01*
X48047496Y-27068646D01*
X48040498Y-27117318D01*
X48030554Y-27151182D01*
X48010128Y-27195909D01*
X47991046Y-27225602D01*
X47958844Y-27262764D01*
X47932173Y-27285874D01*
X47890803Y-27312462D01*
X47858697Y-27327125D01*
X47835111Y-27334050D01*
X47811523Y-27340976D01*
X47776590Y-27345999D01*
X47727413Y-27345999D01*
X47692479Y-27340976D01*
X47645299Y-27327123D01*
X47613193Y-27312461D01*
X47571825Y-27285875D01*
X47545153Y-27262764D01*
X47537666Y-27254124D01*
X47512951Y-27225601D01*
X47493872Y-27195913D01*
X47489226Y-27185740D01*
X47473442Y-27151179D01*
X47463501Y-27117318D01*
X47456654Y-27069696D01*
X47456503Y-27068644D01*
X47456503Y-27033355D01*
X47461260Y-27000263D01*
X47463501Y-26984678D01*
X47473442Y-26950820D01*
X47493873Y-26906083D01*
X47512947Y-26876402D01*
X47545158Y-26839229D01*
X47571828Y-26816120D01*
X47606229Y-26794012D01*
X47613197Y-26789533D01*
X47645295Y-26774875D01*
X47692478Y-26761021D01*
X47727408Y-26756000D01*
X47776590Y-26756000D01*
X47811521Y-26761022D01*
G37*
%TD.AperFunction*%
%TA.AperFunction,Conductor*%
G36*
X44382521Y-26729272D02*
G01*
X44392739Y-26732272D01*
X44429694Y-26743122D01*
X44461798Y-26757783D01*
X44478467Y-26768495D01*
X44503174Y-26784374D01*
X44529844Y-26807484D01*
X44562046Y-26844646D01*
X44581128Y-26874339D01*
X44601554Y-26919066D01*
X44611498Y-26952930D01*
X44618496Y-27001602D01*
X44618497Y-27036890D01*
X44616470Y-27050993D01*
X44616468Y-27051002D01*
X44611497Y-27085571D01*
X44601554Y-27119432D01*
X44581128Y-27164159D01*
X44562046Y-27193852D01*
X44529844Y-27231014D01*
X44503173Y-27254124D01*
X44461803Y-27280712D01*
X44429697Y-27295375D01*
X44406111Y-27302300D01*
X44382523Y-27309226D01*
X44347590Y-27314249D01*
X44298413Y-27314249D01*
X44263479Y-27309226D01*
X44216299Y-27295373D01*
X44184193Y-27280711D01*
X44142825Y-27254125D01*
X44116153Y-27231014D01*
X44111466Y-27225605D01*
X44083951Y-27193851D01*
X44064872Y-27164163D01*
X44064870Y-27164159D01*
X44044442Y-27119429D01*
X44034501Y-27085569D01*
X44027503Y-27036894D01*
X44027503Y-27001605D01*
X44031276Y-26975362D01*
X44034501Y-26952928D01*
X44044442Y-26919070D01*
X44064873Y-26874333D01*
X44083947Y-26844652D01*
X44116158Y-26807479D01*
X44142828Y-26784370D01*
X44149788Y-26779897D01*
X44184197Y-26757783D01*
X44216295Y-26743125D01*
X44263478Y-26729271D01*
X44298408Y-26724250D01*
X44347590Y-26724250D01*
X44382521Y-26729272D01*
G37*
%TD.AperFunction*%
%TA.AperFunction,Conductor*%
G36*
X40953521Y-26713397D02*
G01*
X40967988Y-26717644D01*
X41000694Y-26727247D01*
X41032798Y-26741908D01*
X41058952Y-26758716D01*
X41074174Y-26768499D01*
X41100844Y-26791609D01*
X41133046Y-26828771D01*
X41152128Y-26858464D01*
X41172554Y-26903191D01*
X41182497Y-26937052D01*
X41189496Y-26985724D01*
X41189496Y-27021024D01*
X41182497Y-27069696D01*
X41172554Y-27103557D01*
X41152128Y-27148284D01*
X41133046Y-27177977D01*
X41100844Y-27215139D01*
X41074173Y-27238249D01*
X41032803Y-27264837D01*
X41000697Y-27279500D01*
X40978989Y-27285874D01*
X40953523Y-27293351D01*
X40918590Y-27298374D01*
X40869413Y-27298374D01*
X40834479Y-27293351D01*
X40787299Y-27279498D01*
X40755193Y-27264836D01*
X40713825Y-27238250D01*
X40687153Y-27215139D01*
X40684545Y-27212129D01*
X40654951Y-27177976D01*
X40635872Y-27148288D01*
X40635837Y-27148211D01*
X40615442Y-27103554D01*
X40605501Y-27069694D01*
X40598503Y-27021019D01*
X40598503Y-26985730D01*
X40603522Y-26950816D01*
X40605501Y-26937052D01*
X40615442Y-26903195D01*
X40635873Y-26858458D01*
X40654947Y-26828777D01*
X40687158Y-26791604D01*
X40713828Y-26768495D01*
X40755197Y-26741908D01*
X40787295Y-26727250D01*
X40834478Y-26713396D01*
X40869408Y-26708375D01*
X40918590Y-26708375D01*
X40953521Y-26713397D01*
G37*
%TD.AperFunction*%
%TD*%
M02*
